<svg xmlns="http://www.w3.org/2000/svg" width="41" height="43" fill="none" viewBox="0 0 41 43">
    <path fill="#EB0045" d="M28.143 19.186a.77.77 0 0 0 .718-.715.776.776 0 0 0-.718-.77.742.742 0 0 0 0 1.485zM10.652 4.574c.061 0 .12 0 .12-.058a.126.126 0 0 0-.12-.12c-.061 0-.061.058-.061.12 0 .06 0 .058.06.058zm1.784.073a.129.129 0 0 0 .12-.116c0-.12-.061-.178-.12-.178a.156.156 0 0 0-.177.178c0 .058.06.116.177.116zm1.727.001a.126.126 0 0 0 .116-.117c0-.12-.058-.178-.116-.178s-.12.058-.12.178a.126.126 0 0 0 .12.117zm1.723-.074c.062 0 .12 0 .12-.058a.126.126 0 0 0-.12-.12c-.058 0-.058.058-.058.12 0 .06 0 .058.058.058zm1.784 0l.062-.058a.061.061 0 0 0-.061-.062c-.058 0-.058 0-.058.062a.058.058 0 0 0 .058.058zm-5.233-1.662a.058.058 0 0 0 .058-.062.058.058 0 0 0-.058-.058c-.059 0-.059 0-.059.058 0 .059 0 .062.059.062zM8.925 4.574a.058.058 0 0 0 .059-.058c0-.062 0-.062-.059-.062-.058 0-.058 0-.058.062a.058.058 0 0 0 .058.058zm5.238-1.662c.058 0 .058 0 .058-.061 0-.062 0-.059-.058-.059-.059 0-.062 0-.062.059 0 .058 0 .06.062.06zm-1.726 3.505a.16.16 0 0 0 .177-.181c0-.117-.058-.236-.177-.236a.26.26 0 0 0-.24.236c0 .12.123.18.24.18zm1.726.07a.26.26 0 0 0 .24-.239.247.247 0 0 0-.134-.275.245.245 0 0 0-.345.275.258.258 0 0 0 .239.24zm1.723 0a.276.276 0 0 0 .307-.239.281.281 0 0 0-.307-.307.27.27 0 0 0-.236.307.258.258 0 0 0 .236.24zm1.784 0a.254.254 0 0 0 .24-.239.215.215 0 0 0-.24-.236c-.177 0-.235.058-.235.236a.217.217 0 0 0 .236.24zm1.73-.07a.156.156 0 0 0 .175-.181c0-.117-.058-.236-.175-.236-.116 0-.18.12-.18.236a.16.16 0 0 0 .18.18zm1.724-.061c.12 0 .178-.059.178-.12a.156.156 0 0 0-.178-.178c-.061 0-.12.061-.12.178a.126.126 0 0 0 .12.12zm1.785-.059a.058.058 0 0 0 .058-.061.202.202 0 0 0-.058-.117.129.129 0 0 0-.12.117c0 .061.061.061.12.061zM7.196 8.079l.061-.058a.061.061 0 0 0-.061-.062c-.059 0-.117 0-.117.062a.202.202 0 0 0 .117.058zm5.24.178c.12 0 .178-.12.178-.236 0-.117-.058-.24-.178-.24a.24.24 0 1 0 0 .476zm1.727.07a.28.28 0 0 0 .307-.306.306.306 0 1 0-.595 0 .28.28 0 0 0 .306.306m1.705.049a.399.399 0 0 0 .417-.355.404.404 0 0 0-.417-.417.399.399 0 0 0-.356.417.384.384 0 0 0 .356.355zm1.784.058a.42.42 0 0 0 0-.83.417.417 0 0 0 0 .83zm1.73-.058a.34.34 0 0 0 .368-.355c0-.24-.116-.418-.352-.418a.407.407 0 0 0-.436.418.402.402 0 0 0 .42.355zm1.724-.049a.334.334 0 0 0 .359-.306.386.386 0 0 0-.36-.36.334.334 0 0 0-.306.36.28.28 0 0 0 .307.306zm1.785-.07a.258.258 0 0 0 .233-.236.271.271 0 0 0-.466-.227.28.28 0 0 0-.08.227.274.274 0 0 0 .306.236m1.733-.058a.16.16 0 0 0 .178-.178c0-.12-.061-.24-.178-.24a.258.258 0 0 0-.24.24c0 .116.12.178.24.178zm1.723-.062a.12.12 0 0 0 .088-.204.12.12 0 0 0-.204.088.126.126 0 0 0 .116.116zm-10.472 2.03a.418.418 0 1 0-.41-.426.406.406 0 0 0 .41.426zm1.784.049a.475.475 0 0 0 0-.95.478.478 0 1 0 0 .95zm1.73.061a.537.537 0 1 0 0-1.073.537.537 0 0 0 0 1.073zm1.724 0a.537.537 0 1 0 0-1.073.537.537 0 0 0 0 1.073zm1.785-.061a.464.464 0 0 0 .475-.475.512.512 0 0 0-.475-.476.47.47 0 0 0-.476.476.435.435 0 0 0 .476.475zm1.726-.049a.417.417 0 1 0-.417-.417.406.406 0 0 0 .417.417zm1.723-.07a.356.356 0 0 0 0-.712.362.362 0 0 0 0 .712zm1.785-.117a.257.257 0 0 0 .24-.24.254.254 0 0 0-.24-.235.242.242 0 1 0 0 .475zm1.727-.061a.187.187 0 0 0 .177-.178.264.264 0 0 0-.177-.178.19.19 0 0 0-.178.178.158.158 0 0 0 .105.172c.024.007.048.01.073.006zm-12.199 2.088a.537.537 0 0 0 0-1.067.534.534 0 0 0 0 1.067zm1.729.053a.595.595 0 1 0 0-1.19.595.595 0 0 0 0 1.19zm1.724.057a.657.657 0 1 0 0-1.306.653.653 0 0 0 0 1.306zm1.784 0a.653.653 0 0 0 0-1.306.655.655 0 1 0 0 1.306zm1.727-.058a.595.595 0 0 0 0-1.19.598.598 0 1 0 0 1.19zm1.723-.052a.533.533 0 1 0 0-1.067.533.533 0 0 0 0 1.067zm1.785-.126a.417.417 0 0 0 0-.834.42.42 0 1 0 0 .834zm1.727-.061a.356.356 0 1 0-.356-.356.386.386 0 0 0 .355.356zm1.726-.12a.215.215 0 0 0 .236-.236.217.217 0 0 0-.236-.239.258.258 0 0 0-.24.24.255.255 0 0 0 .24.235zm1.784-.116a.12.12 0 0 0 .085-.204.12.12 0 0 0-.085-.035c-.12 0-.177.06-.177.12 0 .058.058.119.177.119zM19.4 13.847a.638.638 0 0 0 .592-.613.595.595 0 0 0-.591-.595.564.564 0 0 0-.614.595.614.614 0 0 0 .614.595m1.723.071a.675.675 0 0 0 .714-.666.683.683 0 0 0-.714-.712.682.682 0 0 0-.673.955.685.685 0 0 0 .673.41m1.726.07a.737.737 0 0 0 .773-.723.788.788 0 0 0-.773-.773.78.78 0 0 0-.717.773.724.724 0 0 0 .717.711m1.785.012a.685.685 0 0 0 .711-.723.735.735 0 0 0-.711-.773.785.785 0 0 0-.773.773.738.738 0 0 0 .773.711m1.723.012a.733.733 0 0 0 .77-.723.785.785 0 0 0-.773-.773.736.736 0 0 0-.708.773.683.683 0 0 0 .711.711m1.727-.098a.612.612 0 0 0 .653-.613.66.66 0 0 0-.653-.653.613.613 0 0 0-.595.653.564.564 0 0 0 .595.613zm1.785-.126a.488.488 0 0 0 .536-.488.537.537 0 0 0-1.07 0 .483.483 0 0 0 .533.476m1.727-.046a.418.418 0 1 0-.417-.43.41.41 0 0 0 .417.418m1.726-.111a.307.307 0 0 0 .307-.306.282.282 0 0 0-.307-.307.307.307 0 0 0-.306.307.38.38 0 0 0 .306.306zm1.778-.116a.156.156 0 0 0 .179-.178c0-.12-.062-.236-.178-.236a.255.255 0 0 0-.24.236c0 .12.12.178.24.178zm1.73-.12c.062 0 .12 0 .12-.058a.119.119 0 0 0-.027-.097.12.12 0 0 0-.182 0 .117.117 0 0 0-.027.097c0 .058.058.058.116.058zm3.512 5.226c.06 0 .06 0 .06-.059 0-.058 0-.116-.06-.116a.129.129 0 0 0-.12.116c0 .058.061.058.12.058zm0 1.726c.06 0 .06 0 .06-.061 0-.062 0-.12-.06-.12a.128.128 0 0 0-.12.12c0 .061.061.061.12.061zm-19.218-4.569a.723.723 0 0 0 .714-.712.675.675 0 0 0-.714-.653.656.656 0 0 0-.653.653.711.711 0 0 0 .653.712zm1.785.052a.778.778 0 0 0 .714-.77.724.724 0 0 0-.714-.714.74.74 0 0 0-.776.714.788.788 0 0 0 .776.77zm1.726 0a.737.737 0 0 0 .711-.77.715.715 0 1 0-1.426 0 .735.735 0 0 0 .715.77zm1.723 0a.782.782 0 0 0 .77-.77.736.736 0 0 0-.773-.714.689.689 0 0 0-.711.714.737.737 0 0 0 .711.77m1.788 0a.78.78 0 0 0 .718-.77.727.727 0 0 0-.718-.714.739.739 0 0 0-.773.714.788.788 0 0 0 .773.77zm1.727-.052a.715.715 0 1 0-.712-.712.686.686 0 0 0 .712.712zm1.726-.126a.56.56 0 0 0 .595-.592.614.614 0 0 0-.595-.595.64.64 0 0 0-.595.595.595.595 0 0 0 .595.592zm1.784-.116a.478.478 0 0 0 0-.951.475.475 0 1 0 0 .95zm1.721-.12a.358.358 0 1 0-.066-.714.358.358 0 0 0 .066.714zm1.729-.119a.24.24 0 1 0 0-.476.24.24 0 1 0 0 .476zm1.788-.132a.151.151 0 0 0 .042-.184.15.15 0 0 0-.042-.053.119.119 0 0 0-.097.027.12.12 0 0 0 0 .183.118.118 0 0 0 .097.027zM7.196 16.87l.061-.06a.215.215 0 0 0-.061-.12.13.13 0 0 0-.117.12.2.2 0 0 0 .117.06zm1.729 0a.057.057 0 0 0 .043-.018.057.057 0 0 0 .016-.043c0-.058 0-.12-.059-.12-.058 0-.058.062-.058.12a.058.058 0 0 0 .058.062zm1.727.043c.12 0 .178-.055.178-.116a.156.156 0 0 0-.178-.178c-.062 0-.12.058-.12.178a.123.123 0 0 0 .12.116zm1.784.074c.12 0 .236-.061.236-.178a.214.214 0 0 0-.236-.236.217.217 0 0 0-.239.236c0 .117.123.178.24.178zm1.727.12a.283.283 0 0 0 .307-.307.306.306 0 1 0-.595 0 .28.28 0 0 0 .306.307m1.705.058a.398.398 0 0 0 .417-.356.406.406 0 0 0-.417-.414.396.396 0 0 0-.356.414.384.384 0 0 0 .356.356zm1.784.12a.512.512 0 0 0 .48-.476.47.47 0 0 0-.48-.475.437.437 0 0 0-.475.475.466.466 0 0 0 .476.476zm1.73.058a.53.53 0 0 0 .534-.534.535.535 0 0 0-.75-.532.536.536 0 0 0-.32.532.53.53 0 0 0 .536.534zm1.724.058a.613.613 0 0 0 .656-.592.659.659 0 0 0-.656-.653.613.613 0 0 0-.595.653.56.56 0 0 0 .595.592zm3.511.126a.724.724 0 0 0 .711-.715.715.715 0 1 0-1.426 0 .723.723 0 0 0 .715.715zm1.723 0a.776.776 0 0 0 .77-.718.742.742 0 0 0-1.484 0 .767.767 0 0 0 .714.718zm1.785 0a.772.772 0 0 0 .718-.715.782.782 0 0 0-.718-.773.791.791 0 0 0-.773.773.782.782 0 0 0 .773.715zm1.727 0a.724.724 0 0 0 .714-.715.74.74 0 0 0-.714-.773.788.788 0 0 0-.773.773.779.779 0 0 0 .773.715zm1.726 0a.779.779 0 0 0 .772-.715.788.788 0 0 0-.772-.773.739.739 0 0 0-.715.773.724.724 0 0 0 .715.715zm1.784-.126a.637.637 0 0 0 .595-.592.65.65 0 0 0-.594-.653.66.66 0 0 0-.654.653.65.65 0 0 0 .654.592zm1.72-.116a.512.512 0 0 0 .476-.476.47.47 0 0 0-.475-.475.437.437 0 0 0-.476.475.466.466 0 0 0 .476.476zm1.73-.178a.334.334 0 0 0 .359-.307.342.342 0 0 0-.359-.356c-.178 0-.306.12-.306.356a.281.281 0 0 0 .306.307zm1.788-.12a.208.208 0 0 0 0-.414.254.254 0 0 0-.24.236.264.264 0 0 0 .24.178zm-8.748 2.199a.723.723 0 0 0 .714-.715.731.731 0 0 0-.715-.77.742.742 0 0 0 0 1.485zm1.726 0a.743.743 0 0 0 0-1.485.735.735 0 0 0-.715.77.724.724 0 0 0 .715.715zm1.784 0a.77.77 0 0 0 .715-.715.745.745 0 1 0-.715.715zm1.72-.181a.532.532 0 0 0 .535-.534.546.546 0 0 0-.534-.591.614.614 0 0 0-.613.591.589.589 0 0 0 .613.534zm1.73-.175a.398.398 0 0 0 .397-.529.416.416 0 0 0-.79 0 .396.396 0 0 0 .393.529zm1.788-.178a.159.159 0 0 0 .172-.108.16.16 0 0 0 .006-.073c0-.116-.061-.236-.178-.236a.218.218 0 0 0-.239.236c0 .12.058.181.24.181z"/>
    <path fill="#EB0045" d="M40.342 18.471h.06a.058.058 0 0 0-.06-.058c-.059 0-.059 0-.059.058h.059zM31.596 20.9a.74.74 0 0 0 .772-.714.788.788 0 0 0-.772-.773.74.74 0 0 0-.715.773.69.69 0 0 0 .715.714zm1.784 0a.727.727 0 0 0 .715-.715.744.744 0 1 0-1.487 0 .74.74 0 0 0 .773.715zm1.72-.113a.561.561 0 0 0 .614-.592.614.614 0 0 0-.595-.654.66.66 0 0 0-.656.654.615.615 0 0 0 .656.591m1.711-.178a.414.414 0 1 0-.413-.413.405.405 0 0 0 .413.413zm1.788-.174c.117 0 .178-.12.178-.24 0-.119-.061-.235-.178-.235a.24.24 0 1 0 0 .475zm1.724 1.542a.061.061 0 0 0 .06-.061h-.119a.06.06 0 0 0 .016.043.059.059 0 0 0 .042.018zm-8.746.714a.788.788 0 0 0 .773-.775.779.779 0 0 0-.773-.712.723.723 0 0 0-.715.712.742.742 0 0 0 .715.776zm1.784 0a.74.74 0 0 0 .715-.775.724.724 0 0 0-.715-.712.78.78 0 0 0-.772.712.788.788 0 0 0 .773.776zm1.72-.119a.611.611 0 0 0 .596-.656.595.595 0 0 0-.595-.592.653.653 0 0 0-.657.592.663.663 0 0 0 .657.656zm1.73-.297a.307.307 0 0 0 .359-.36c0-.177-.12-.306-.359-.306a.33.33 0 0 0-.355.307.346.346 0 0 0 .216.335.345.345 0 0 0 .14.024zm1.788-.12c.117 0 .178-.116.178-.24a.159.159 0 0 0-.178-.177c-.12 0-.24.061-.24.178a.254.254 0 0 0 .24.24z"/>
    <path fill="#EB0045" d="M40.342 21.976v-.061h-.059a.06.06 0 0 0 .016.043.059.059 0 0 0 .042.018zm0-5.063l.06-.055-.06-.061a.059.059 0 0 0-.043.018.059.059 0 0 0-.016.043.055.055 0 0 0 .017.04.055.055 0 0 0 .042.015zm-8.746 7.498a.735.735 0 0 0 .773-.711.786.786 0 0 0-.773-.773.734.734 0 0 0-.715.773.683.683 0 0 0 .715.711zm1.784-.001a.72.72 0 0 0 .715-.71.744.744 0 1 0-1.487 0 .735.735 0 0 0 .773.71zm1.72-.238a.466.466 0 0 0 .476-.472.485.485 0 0 0-.475-.534.533.533 0 0 0-.537.534.524.524 0 0 0 .537.472zm1.73-.178a.33.33 0 0 0 .36-.306.383.383 0 0 0-.36-.36.334.334 0 0 0-.306.36.279.279 0 0 0 .306.306zm1.788-.116a.13.13 0 0 0 .117-.12c0-.058-.059-.178-.117-.178a.193.193 0 0 0-.18.178c0 .058.06.12.18.12zm-7.022 2.256a.735.735 0 0 0 .772-.714.788.788 0 0 0-.772-.773.737.737 0 0 0-.715.773.687.687 0 0 0 .715.714zm1.784-.061a.653.653 0 1 0 0-1.306.653.653 0 0 0 0 1.306zm1.72-.236a.416.416 0 1 0-.416-.417.404.404 0 0 0 .417.417zm1.73-.239c.12 0 .24-.059.24-.178a.258.258 0 0 0-.24-.236c-.116 0-.177.12-.177.236a.158.158 0 0 0 .044.133.157.157 0 0 0 .133.045zm-6.96 2.257a.684.684 0 0 0 .714-.712.733.733 0 0 0-.714-.77.782.782 0 0 0-.773.77.736.736 0 0 0 .773.712zm1.726-.058a.653.653 0 1 0 0-1.306.653.653 0 0 0 0 1.306zm1.784-.237a.417.417 0 1 0 0-.834.42.42 0 1 0 0 .834zm1.72-.18a.255.255 0 0 0 .237-.237.239.239 0 1 0-.236.236zm-5.23 2.14a.654.654 0 1 0 0-1.308.654.654 0 0 0 0 1.308zm1.726-.24a.417.417 0 1 0-.417-.413.405.405 0 0 0 .417.413zm1.784-.235a.194.194 0 0 0 .188-.172.19.19 0 0 0-.178-.178c-.12 0-.24.058-.24.178s.12.178.24.178m-5.305 2.131a.549.549 0 0 0 .595-.534.614.614 0 0 0-.595-.595.586.586 0 0 0-.494.8.533.533 0 0 0 .494.329zm1.785-.162a.387.387 0 0 0 .358-.356.399.399 0 0 0-.359-.417.408.408 0 0 0-.416.417.398.398 0 0 0 .416.355zm1.726-.255c.058 0 .178-.058.178-.117a.19.19 0 0 0-.178-.177.157.157 0 0 0-.172.105.157.157 0 0 0-.006.072c0 .059.058.117.178.117zm-3.453 1.901a.307.307 0 0 0 0-.592.306.306 0 0 0 0 .592zm1.727-.178a.12.12 0 0 0 .127-.068.12.12 0 0 0-.031-.141.12.12 0 0 0-.097-.027.119.119 0 0 0-.127.068.12.12 0 0 0 .127.168zm-1.727 1.662v-.064h-.058c0 .058 0 .058.058.058m-3.508 1.73h.058a.058.058 0 0 0-.017-.042.058.058 0 0 0-.041-.017.059.059 0 0 0-.043.016.06.06 0 0 0-.018.043h.06zm-1.726-18.347a.77.77 0 0 0 .714-.715.782.782 0 0 0-.714-.773.791.791 0 0 0-.776.773.782.782 0 0 0 .776.715z"/>
    <path fill="#55C1E9" d="M1.063 38.428c-.058 0-.058 0-.058.058h.116a.058.058 0 0 0-.058-.058z"/>
    <path fill="#0048BB" d="M21.124 37.42c-.061 0-.12.057-.12.177a.129.129 0 0 0 .12.12c.12 0 .178-.062.178-.12a.156.156 0 0 0-.178-.178zM19.4 35.282a.594.594 0 1 0-.037 1.187.594.594 0 0 0 .037-1.187zm1.724.116a.425.425 0 0 0-.417.475.405.405 0 0 0 .417.418.46.46 0 0 0 .475-.417.47.47 0 0 0-.475-.476zm1.784.178a.283.283 0 0 0-.306.307.272.272 0 0 0 .306.24.257.257 0 0 0 .24-.24.273.273 0 0 0-.24-.307zm0-2.018a.548.548 0 0 0-.595.528.565.565 0 0 0 .595.595.55.55 0 0 0 .54-.595.53.53 0 0 0-.534-.534m1.721.242a.335.335 0 0 0-.359.307.359.359 0 0 0 .715 0 .335.335 0 0 0-.356-.307zm1.723.178a.119.119 0 0 0-.11.074.12.12 0 1 0 .23.046.129.129 0 0 0-.12-.12zm0-1.959a.343.343 0 0 0-.355.356.399.399 0 0 0 .355.417.408.408 0 0 0 .42-.417c0-.236-.18-.356-.42-.356zm-1.723-.178a.537.537 0 1 0 0 1.073.537.537 0 0 0 0-1.073zm1.723-1.782a.64.64 0 0 0-.595.595.586.586 0 0 0 .8.494.533.533 0 0 0 .332-.494.589.589 0 0 0-.537-.595zm1.785-1.723a.537.537 0 0 0 0 1.07.54.54 0 0 0 0-1.07zM5.417 9.98a.218.218 0 0 0 .236-.239.218.218 0 0 0-.236-.236.254.254 0 0 0-.239.236.258.258 0 0 0 .24.24zm1.779.058a.306.306 0 0 0 .306-.306.38.38 0 0 0-.306-.307.307.307 0 0 0-.307.307.282.282 0 0 0 .307.306zm1.729 0a.307.307 0 1 0-.306-.306.279.279 0 0 0 .306.306zm1.727 0a.306.306 0 1 0 .149-.594.306.306 0 0 0-.15.594zm1.784 0a.306.306 0 0 0 .307-.306.38.38 0 0 0-.307-.307.307.307 0 0 0-.306.307.281.281 0 0 0 .306.306zm3.45 1.844a.405.405 0 0 0 .388-.256.408.408 0 0 0 .03-.162c0-.239-.179-.355-.418-.355a.34.34 0 0 0-.356.355.4.4 0 0 0 .356.418zm-1.723 0a.417.417 0 1 0-.417-.418.41.41 0 0 0 .417.418zm-5.238.058a.476.476 0 1 0-.475-.476.515.515 0 0 0 .475.475zm1.727 0a.475.475 0 1 0 0-.951.479.479 0 0 0 0 .95zm1.784 0a.478.478 0 0 0 0-.951.476.476 0 0 0 0 .95zm-5.24-.059a.417.417 0 0 0 0-.834.42.42 0 1 0 0 .834zm3.456-3.744c.12 0 .178-.058.178-.116a.16.16 0 0 0-.178-.181c-.062 0-.12.061-.12.18a.125.125 0 0 0 .12.117zm-1.727 0a.129.129 0 0 0 .11-.116c0-.12-.06-.181-.119-.181a.193.193 0 0 0-.178.18c0 .059.12.117.178.117m-3.499-1.84c.058 0 .117 0 .117-.061a.126.126 0 0 0-.117-.117c-.061 0-.061.059-.061.117 0 .058 0 .061.061.061zm1.779.058a.129.129 0 0 0 .123-.12c0-.116-.062-.177-.123-.177a.156.156 0 0 0-.175.178c0 .061.058.12.175.12zm1.729.001a.129.129 0 0 0 .12-.12c0-.117-.061-.178-.12-.178-.058 0-.12.061-.12.178a.129.129 0 0 0 .12.12zm1.727 0c.12 0 .178-.059.178-.12a.156.156 0 0 0-.178-.178c-.062 0-.12.061-.12.178a.126.126 0 0 0 .12.12zm1.784 0a.12.12 0 0 0 .097-.21.12.12 0 0 0-.097-.027c-.116 0-.116.059-.116.117 0 .058 0 .12.116.12zM5.417 8.079c.058 0 .117 0 .117-.058a.126.126 0 0 0-.117-.12c-.061 0-.061.058-.061.12 0 .06 0 .058.061.058zm1.779.058a.129.129 0 0 0 .122-.116c0-.12-.061-.181-.122-.181a.156.156 0 0 0-.175.18c0 .059.058.117.175.117zm5.241 0a.12.12 0 0 0 .096-.209.12.12 0 0 0-.096-.027c-.117 0-.178.058-.178.12 0 .061.06.116.178.116zm1.726 0a.12.12 0 0 0 .083-.205.12.12 0 0 0-.203.089.125.125 0 0 0 .12.116zm3.508 1.723a.129.129 0 0 0 .123-.12.132.132 0 0 0-.123-.119.129.129 0 0 0-.116.12.126.126 0 0 0 .116.12zm-13.981 0a.129.129 0 0 0 .12-.12.132.132 0 0 0-.12-.119.129.129 0 0 0-.119.12.126.126 0 0 0 .12.12zm10.473.178a.276.276 0 0 0 .239-.306.258.258 0 0 0-.24-.236.27.27 0 0 0-.226.462.28.28 0 0 0 .227.08zm1.723-.058a.257.257 0 0 0 .24-.24c0-.119-.12-.177-.24-.177a.156.156 0 0 0-.178.178c0 .12.062.24.178.24zm5.238 1.72a.251.251 0 0 0 .236-.236.254.254 0 0 0-.236-.239c-.12 0-.178.12-.178.24 0 .119.058.235.178.235zm8.746 5.287a.157.157 0 0 0 .171-.106.155.155 0 0 0 .006-.072c0-.12-.058-.236-.178-.236a.252.252 0 0 0-.236.236c0 .117.117.178.236.178zM1.964 11.522a.058.058 0 1 0 0-.116c-.058 0-.12 0-.12.058s.062.058.12.058zm1.726.178a.251.251 0 0 0 .237-.236.254.254 0 0 0-.236-.239.258.258 0 0 0-.24.24.255.255 0 0 0 .24.235zm1.727.12a.356.356 0 1 0 0-.711.356.356 0 0 0 0 .711zM19.4 11.7a.255.255 0 0 0 .237-.236.257.257 0 0 0-.237-.239.245.245 0 1 0 0 .476zm-1.73 0a.251.251 0 0 0 .24-.236.255.255 0 0 0-.24-.239.242.242 0 0 0-.2.425.242.242 0 0 0 .2.05zM1.964 13.366a.13.13 0 0 0 .12-.12c0-.12-.058-.178-.12-.178a.156.156 0 0 0-.178.178c0 .058.059.12.178.12zm1.726.174a.334.334 0 0 0 .357-.306.359.359 0 0 0-.715 0 .334.334 0 0 0 .359.306zm19.219 1.905a.423.423 0 0 0 .417-.476.404.404 0 0 0-.417-.417.424.424 0 0 0-.476.418.435.435 0 0 0 .476.475zm-1.785-1.843a.399.399 0 0 0 .417-.368.408.408 0 0 0-.417-.417c-.24 0-.356.18-.356.417a.34.34 0 0 0 .356.355m-1.724.013a.396.396 0 0 0 .414-.368.41.41 0 0 0-.414-.417c-.239 0-.358.18-.358.417a.343.343 0 0 0 .358.355m3.45-.049a.334.334 0 0 0 .356-.306.384.384 0 0 0-.356-.356.33.33 0 0 0-.306.356.28.28 0 0 0 .306.306zM1.964 15.205c.12 0 .178-.12.178-.236a.157.157 0 0 0-.178-.178c-.12 0-.239.059-.239.178a.258.258 0 0 0 .24.236zm1.726.175a.417.417 0 1 0-.416-.414.408.408 0 0 0 .417.414zm20.945 0a.417.417 0 1 0-.417-.414.403.403 0 0 0 .417.414zm1.723-.055a.36.36 0 0 0 .275-.622.358.358 0 0 0-.275-.093.362.362 0 0 0 0 .715zm1.785 1.84a.361.361 0 0 0 0-.712.356.356 0 0 0 0 .712zM.18 16.87a.215.215 0 0 0 .12-.06.132.132 0 0 0-.12-.12.218.218 0 0 0-.059.12l.059.06zm1.784.237a.384.384 0 0 0 .307-.307.307.307 0 0 0-.307-.307.281.281 0 0 0-.306.307.307.307 0 0 0 .306.307zm1.726.178a.466.466 0 0 0 .476-.476.435.435 0 0 0-.475-.475.469.469 0 0 0-.447.29.466.466 0 0 0-.035.185.51.51 0 0 0 .476.476m22.673-.065a.422.422 0 0 0 .463-.41.47.47 0 0 0-.475-.476.46.46 0 0 0-.414.475.405.405 0 0 0 .426.411zM.18 18.59a.131.131 0 0 0 .12-.119c0-.116-.062-.116-.12-.116-.058 0-.12 0-.12.116a.132.132 0 0 0 .12.12zm1.784.179a.28.28 0 0 0 .307-.307c0-.236-.12-.356-.307-.356a.343.343 0 0 0-.355.356.33.33 0 0 0 .355.307zm1.726.236a.53.53 0 0 0 .534-.534.537.537 0 1 0-1.07 0 .534.534 0 0 0 .537.534zM.18 20.372a.187.187 0 0 0 .178-.177.156.156 0 0 0-.178-.178c-.058 0-.12.058-.12.178 0 .061.062.177.12.177zm1.784.178a.387.387 0 0 0 .359-.355.399.399 0 0 0-.359-.414.406.406 0 0 0-.417.414.399.399 0 0 0 .417.355zm1.726.237a.595.595 0 0 0 .421-1.013.595.595 0 1 0-.648.968c.072.03.15.045.228.044zm26.18-1.84a.464.464 0 0 0 .475-.476.485.485 0 0 0-.68-.493.53.53 0 0 0-.33.493.521.521 0 0 0 .534.476zm-1.727 0a.511.511 0 0 0 .478-.476.524.524 0 0 0-.478-.533.534.534 0 0 0-.534.533.524.524 0 0 0 .534.476zm3.453 1.723a.521.521 0 0 0 .533-.475.534.534 0 0 0-.533-.537.524.524 0 0 0-.482.537.51.51 0 0 0 .476.475m.006 1.781a.533.533 0 0 0 .533-.536.521.521 0 0 0-.533-.473.466.466 0 0 0-.476.473.487.487 0 0 0 .476.536zm0 .715a.521.521 0 0 0-.475.534.51.51 0 0 0 .475.472.521.521 0 0 0 .534-.472.53.53 0 0 0-.534-.534zM.18 22.154a.254.254 0 0 0 .239-.239.273.273 0 0 0-.24-.178.28.28 0 0 0-.177.178.264.264 0 0 0 .178.24zm1.784.178a.406.406 0 0 0 .417-.417.423.423 0 0 0-.834 0 .405.405 0 0 0 .417.417zm1.726.239a.66.66 0 0 0 .654-.656.65.65 0 0 0-.653-.592.595.595 0 0 0-.595.592.613.613 0 0 0 .595.656zm29.69-.951a.329.329 0 1 0 0 .654.334.334 0 0 0 .307-.359.307.307 0 0 0-.306-.307m-.001-1.116a.307.307 0 0 0 .307-.306.327.327 0 0 0-.326-.36.329.329 0 0 0-.327.36.334.334 0 0 0 .356.306m-1.794-1.723a.307.307 0 0 0 .306-.307.306.306 0 1 0-.595 0 .307.307 0 0 0 .307.307M.18 23.878c.12 0 .239-.062.239-.178 0-.117-.12-.181-.24-.181a.181.181 0 0 0 0 .359zm1.784-.654a.509.509 0 0 0-.475.476.46.46 0 0 0 .475.417.407.407 0 0 0 .417-.417.457.457 0 0 0-.417-.476zm1.726 1.129a.657.657 0 1 0 0-1.313.657.657 0 0 0 0 1.313zm29.632-1a.386.386 0 0 0-.306.359.307.307 0 0 0 .306.306.332.332 0 0 0 .356-.306.384.384 0 0 0-.356-.359zM.18 25.193c-.12 0-.178.12-.178.236a.156.156 0 0 0 .178.178c.12 0 .239-.058.239-.178a.258.258 0 0 0-.24-.236zm1.784-.248a.512.512 0 0 0-.475.475.457.457 0 0 0 .475.417.406.406 0 0 0 .417-.417.46.46 0 0 0-.417-.475zm1.726-.236a.714.714 0 0 0-.655.71.656.656 0 0 0 1.309 0 .711.711 0 0 0-.653-.71zm27.906.177a.484.484 0 0 0-.476.534.438.438 0 0 0 .476.478.486.486 0 0 0 .533-.478.53.53 0 0 0-.533-.534zm-1.726 1.662a.595.595 0 1 0 .594.595.64.64 0 0 0-.595-.595zm-29.69.356c-.12 0-.178.12-.178.24 0 .119.058.236.178.236a.254.254 0 0 0 .239-.237.258.258 0 0 0-.24-.239zm1.784-.178a.42.42 0 1 0 0 .834.417.417 0 1 0 0-.834zm1.726-.236a.654.654 0 1 0 .654.653.66.66 0 0 0-.653-.653zm27.906.236a.423.423 0 0 0 0 .834.417.417 0 1 0 0-.834zM.18 28.689a.19.19 0 0 0-.178.178.194.194 0 0 0 .178.178c.12 0 .239-.062.239-.178 0-.117-.12-.178-.24-.178zm1.784-.239a.42.42 0 1 0 0 .83.417.417 0 1 0 0-.83zm1.727-.237a.653.653 0 1 0 .653.66.66.66 0 0 0-.653-.654m26.179.231a.417.417 0 1 0 0 .83.417.417 0 1 0 0-.83zM1.906 30.231a.417.417 0 1 0 0 .831.417.417 0 1 0 0-.83zm1.784-.236a.654.654 0 1 0 .654.653.66.66 0 0 0-.653-.653zm24.395.178a.46.46 0 0 0-.417.475.407.407 0 0 0 .417.414.458.458 0 0 0 .475-.414.51.51 0 0 0-.475-.475zM.18 30.47c-.058 0-.12.059-.12.178 0 .059.062.178.12.178a.19.19 0 0 0 .178-.178.157.157 0 0 0-.178-.177zm1.784 1.543c-.239 0-.417.12-.417.355a.405.405 0 0 0 .417.417.399.399 0 0 0 .36-.417.344.344 0 0 0-.36-.355zm1.726-.298a.654.654 0 1 0 .654.653.66.66 0 0 0-.653-.653zm-3.51.531a.12.12 0 1 0 .12.116.129.129 0 0 0-.12-.116zm1.784 1.49a.341.341 0 0 0-.355.35.306.306 0 0 0 .355.356.346.346 0 0 0 .335-.217.344.344 0 0 0 .024-.139.386.386 0 0 0-.359-.356m1.726-.172a.586.586 0 0 0-.594.528.595.595 0 0 0 1.19 0 .586.586 0 0 0-.595-.534m-3.511.482c-.059 0-.059 0-.059.058s0 .12.059.12a.132.132 0 0 0 .12-.12c0-.058-.062-.058-.12-.058zm1.784 1.542a.283.283 0 0 0-.306.307.307.307 0 0 0 .306.307.38.38 0 0 0 .307-.307.307.307 0 0 0-.307-.307zm1.726-.236a.534.534 0 0 0-.536.533.54.54 0 0 0 1.07 0 .53.53 0 0 0-.533-.533zm20.945.475c-.062 0-.062 0-.062.059h.12a.058.058 0 0 0-.058-.058zM1.964 37.358c-.178 0-.239.061-.239.239a.218.218 0 0 0 .24.236.255.255 0 0 0 .238-.236.221.221 0 0 0-.239-.24zm1.726-.236a.457.457 0 0 0-.416.475.417.417 0 0 0 .834 0 .46.46 0 0 0-.417-.475zm1.727-.178a.613.613 0 0 0-.613.653.565.565 0 0 0 .613.595.612.612 0 0 0 .653-.595.66.66 0 0 0-.653-.653zm12.254.12a.533.533 0 1 0 .006 1.066.533.533 0 0 0-.006-1.066zm1.729.177a.341.341 0 0 0-.358.356.355.355 0 1 0 .711 0 .34.34 0 0 0-.352-.356zM1.964 39.2c-.12 0-.178.059-.178.12a.157.157 0 0 0 .178.178c.062 0 .12-.061.12-.178a.126.126 0 0 0-.12-.12zm1.726-.177a.334.334 0 0 0-.358.306.359.359 0 0 0 .715 0 .331.331 0 0 0-.356-.306zm1.727-.178a.512.512 0 0 0-.478.475.524.524 0 0 0 .478.534.532.532 0 0 0 .534-.534.522.522 0 0 0-.534-.475zm1.779-.178a.653.653 0 1 0 .006 1.307.653.653 0 0 0-.006-1.307zm1.729-.061a.724.724 0 0 0-.714.714.717.717 0 1 0 1.429 0 .724.724 0 0 0-.715-.714zm1.727 0a.687.687 0 0 0-.715.714.736.736 0 0 0 .715.77.785.785 0 0 0 .773-.77.736.736 0 0 0-.773-.714zm1.784.061a.675.675 0 0 0-.667.93.688.688 0 0 0 .929.375.674.674 0 0 0 .395-.652.66.66 0 0 0-.657-.653zm1.727.116a.537.537 0 0 0-.527.537.54.54 0 1 0 1.073 0 .536.536 0 0 0-.537-.537m1.714.12a.416.416 0 1 0 .417.417.406.406 0 0 0-.417-.417zm1.784.178a.22.22 0 0 0-.174.064.218.218 0 0 0-.061.175c0 .178.058.237.236.237a.217.217 0 0 0 .228-.142.215.215 0 0 0 .01-.095.254.254 0 0 0-.238-.239zM.18 35.815a.058.058 0 0 0-.059.059h.117a.058.058 0 0 0-.058-.059zm3.51 5.048a.258.258 0 0 0-.239.239c0 .116.12.178.24.178s.236-.062.236-.178a.254.254 0 0 0-.236-.24zm1.727-.12c-.18 0-.306.12-.306.359a.278.278 0 0 0 .306.306.33.33 0 0 0 .356-.306.343.343 0 0 0-.356-.359zm1.779-.116a.512.512 0 0 0-.475.475.46.46 0 0 0 .475.414.404.404 0 0 0 .417-.414.457.457 0 0 0-.417-.475zm1.729-.061a.486.486 0 0 0-.475.536.473.473 0 0 0 .475.475.515.515 0 0 0 .479-.475.527.527 0 0 0-.479-.536zm1.727 0a.524.524 0 0 0-.476.536.512.512 0 0 0 .476.475.47.47 0 0 0 .475-.475.487.487 0 0 0-.475-.536zm1.785.119a.404.404 0 0 0-.418.417.398.398 0 0 0 .418.343.387.387 0 0 0 .358-.355.4.4 0 0 0-.358-.418m1.726.191a.218.218 0 0 0-.24.239.239.239 0 1 0 .48 0 .222.222 0 0 0-.24-.24zm1.723.119c-.058 0-.058.059-.058.12a.058.058 0 0 0 .058.058.205.205 0 0 0 .12-.058.126.126 0 0 0-.12-.12zM5.417 42.586a.27.27 0 0 0-.18.178.19.19 0 0 0 .18.178.156.156 0 0 0 .175-.178.19.19 0 0 0-.175-.178zm1.779 0c-.117 0-.236.058-.236.178a.255.255 0 0 0 .236.236c.122 0 .18-.117.18-.236a.157.157 0 0 0-.18-.178zm1.729 0c-.12 0-.236.058-.236.178a.252.252 0 0 0 .236.236.254.254 0 0 0 .24-.236c0-.12-.12-.178-.24-.178zm1.727 0a.264.264 0 0 0-.178.178.187.187 0 0 0 .178.178.157.157 0 0 0 .171-.106.155.155 0 0 0 .007-.072.19.19 0 0 0-.178-.178zm1.784.12a.203.203 0 0 0-.116.058.129.129 0 0 0 .116.12.218.218 0 0 0 .059-.12l-.059-.058zm-8.746 0a.06.06 0 0 0-.042.016.059.059 0 0 0-.018.042c0 .058 0 .12.06.12.062 0 .06-.062.06-.12a.058.058 0 0 0-.06-.058zm-1.726-1.724a.13.13 0 0 0-.12.12.218.218 0 0 0 .12.058l.062-.058a.202.202 0 0 0-.062-.12zM19.4 39.259a.061.061 0 0 0-.06.061c0 .059 0 .117.06.117.062 0 .059-.058.059-.117a.058.058 0 0 0-.058-.061z"/>
    <path fill="#0048BB" d="M30.762 23.7a.92.92 0 0 0-.178-.534v-.24a.843.843 0 0 0-.061-.413.994.994 0 0 0 .18-.614.655.655 0 0 0-.18-.472.352.352 0 0 0 .06-.239.972.972 0 0 0-.177-.534c.118-.13.181-.3.178-.475a.74.74 0 0 0-.715-.773.757.757 0 0 0-.533.236.776.776 0 0 0-.359-.058H28.8a.954.954 0 0 0-.656-.306.921.921 0 0 0-.773.414v-.12a1.887 1.887 0 0 0-.178-.831v-.24a.77.77 0 0 0-.595-.769 3.066 3.066 0 0 0-1.548-.819.19.19 0 0 0 .061-.116.476.476 0 0 0-.95 0c0 .061 0 .061.058.116a1.757 1.757 0 0 0-.595.181c-.12-.058-.24-.058-.307-.12v-.177a.424.424 0 0 0-.714-.356 2.453 2.453 0 0 0-1.242-1.06.442.442 0 0 0 .24-.415.466.466 0 0 0-.476-.475.457.457 0 0 0-.417.475v.178h-.715v-.178a.595.595 0 0 0-.592-.595.816.816 0 0 0-.358.12 2.3 2.3 0 0 0-.893-1.07v-.187a.534.534 0 0 0-.527-.522.613.613 0 0 0-.476.307 1.598 1.598 0 0 0-.536-.061h-.178a.614.614 0 0 0-.859-.21.57.57 0 0 0-.211.262.988.988 0 0 0-.417-.062h-.236a.685.685 0 0 0-.537-.355.613.613 0 0 0-.537.355h-.662a.705.705 0 0 0-.595-.355.683.683 0 0 0-.537.355h-.12a1.27 1.27 0 0 0-.474.062.647.647 0 0 0-.595-.417.714.714 0 0 0-.595.417 1.598 1.598 0 0 0-.537-.062h-.058a.614.614 0 0 0-.537-.355.547.547 0 0 0-.417.178.948.948 0 0 0-.533-.178.669.669 0 0 0-.476.178.872.872 0 0 0-.358-.12h-.117a.92.92 0 0 0-.613-.236 1.018 1.018 0 0 0-.748.414c-.062-.059-.12-.059-.237-.059a.47.47 0 0 0-.487.464.515.515 0 0 0 .478.475c.058 0 .117 0 .117-.058.05.17.159.316.306.414a.868.868 0 0 0-.116.355.555.555 0 0 0-.307-.058.64.64 0 0 0-.613.595.595.595 0 0 0 .613.592h.058c-.01.18.01.362.059.536h-.117a.674.674 0 0 0-.656.712.567.567 0 0 0 .24.533c-.069.13-.11.272-.12.417 0 .059.058.059.058.12a.733.733 0 0 0-.307.592c.027.197.11.382.24.533a.503.503 0 0 0-.12.36c0 .058.058.119.058.177a.895.895 0 0 0-.236.653.856.856 0 0 0 .365.718c0 .116-.058.236-.058.352a.921.921 0 0 0-.36.654 1.043 1.043 0 0 0 .36.714.85.85 0 0 0-.062.414.778.778 0 0 0-.306.656c.013.25.123.484.306.653a.644.644 0 0 0-.058.307v.123a.886.886 0 0 0-.24.65.95.95 0 0 0 .307.653.368.368 0 0 0-.058.24v.177c-.14.19-.224.417-.239.653a.819.819 0 0 0 .18.534.994.994 0 0 0-.06.417v.306c-.075.148-.115.31-.12.476.015.236.098.463.24.653v.475a1.22 1.22 0 0 0-.24.653.764.764 0 0 0 .24.592v.476a1.012 1.012 0 0 0 0 1.306v.475a.82.82 0 0 0-.24.653.92.92 0 0 0 .24.595v.476a.812.812 0 0 0-.24.653.877.877 0 0 0 .895.892.957.957 0 0 0 .654-.306.73.73 0 0 0 .533.475.978.978 0 0 0-.307.711.92.92 0 0 0 .89.892 1.24 1.24 0 0 0 .656-.239h.356c.192.14.42.223.656.24a.988.988 0 0 0 .714-.307h.417a.85.85 0 0 0 .654.306.957.957 0 0 0 .653-.306h.494a.687.687 0 0 0 .594.236.996.996 0 0 0 .715-.307.218.218 0 0 0 .178.059.222.222 0 0 0 .178-.059.804.804 0 0 0 .714.307.89.89 0 0 0 .653-.236h.417c.13.066.272.107.417.12a.92.92 0 0 0 .95-.893.947.947 0 0 0-.177-.533.92.92 0 0 0 .656-.476c.168.139.375.221.592.236a.892.892 0 0 0 .834-.83.677.677 0 0 0-.355-.654c.216-.109.4-.273.533-.475a.896.896 0 0 0 1.43 0h.119c.121.01.243-.01.355-.058.153.12.343.183.537.178a.737.737 0 0 0 .773-.715.574.574 0 0 0-.24-.534c.107-.164.187-.344.24-.533 0-.061.061-.061.061-.12h.414a.966.966 0 0 0 .537.178.786.786 0 0 0 .773-.773.68.68 0 0 0-.356-.653v-.058a1.19 1.19 0 0 0 .536-.534.92.92 0 0 0 .773.414.92.92 0 0 0 .893-.889.83.83 0 0 0-.418-.714c.233-.114.422-.302.537-.534a.847.847 0 0 0 .712.356.894.894 0 0 0 .953-.89 1.041 1.041 0 0 0-.359-.714 1.06 1.06 0 0 0 .418-.475.96.96 0 0 0 .772.355.876.876 0 0 0 .417-1.659.96.96 0 0 0 .537-.536.92.92 0 0 0 .714.414.85.85 0 0 0 .834-.831 1.07 1.07 0 0 0-.239-.592v-.12c0-.12 0-.239-.061-.306a.92.92 0 0 0 .417-.712"/>
    <path fill="#55C1E9" d="M6.368.3a.129.129 0 0 0 .12-.12c0-.12-.062-.178-.12-.178A.156.156 0 0 0 6.19.18c0 .06.058.12.178.12zM8.094.24c.058 0 .117 0 .117-.06a.12.12 0 1 0-.237 0c0 .06.059.06.12.06zm8.626 3.503a.126.126 0 0 0 .12-.12.128.128 0 0 0-.12-.12c-.058 0-.058.062-.058.12 0 .059 0 .12.058.12zm3.511 1.723a.214.214 0 0 0 .12-.061.129.129 0 0 0-.12-.117c-.058 0-.058.058-.058.117a.058.058 0 0 0 .016.043.059.059 0 0 0 .042.018zM2.798 2.02a.129.129 0 0 0 .12-.117.132.132 0 0 0-.12-.12.129.129 0 0 0-.12.12.126.126 0 0 0 .12.116zm1.724.06c.12 0 .239-.06.239-.177a.258.258 0 0 0-.24-.24.267.267 0 0 0-.177.24.193.193 0 0 0 .178.178zm1.788.059a.24.24 0 1 0-.24-.236.258.258 0 0 0 .24.236zm1.723-.059c.12 0 .239-.06.239-.177a.258.258 0 0 0-.24-.24c-.119 0-.177.12-.177.24a.156.156 0 0 0 .178.178zm1.727 0a.19.19 0 0 0 .177-.177.16.16 0 0 0-.178-.18c-.058 0-.12.06-.12.18 0 .058.062.178.12.178zm1.784-.06c.058 0 .058-.059.058-.117 0-.058 0-.12-.058-.12a.132.132 0 0 0-.12.12.129.129 0 0 0 .12.116zM1.063 3.743a.129.129 0 0 0 .12-.12.12.12 0 1 0-.24 0 .129.129 0 0 0 .12.12zm1.735.119c.178 0 .237-.061.237-.239a.215.215 0 0 0-.237-.236.255.255 0 0 0-.226.33.22.22 0 0 0 .226.145zm1.724.117c.239 0 .417-.117.417-.356a.399.399 0 0 0-.417-.355.383.383 0 0 0-.356.355.34.34 0 0 0 .356.356zm1.788.119a.457.457 0 0 0 .414-.475.405.405 0 0 0-.414-.414.46.46 0 0 0-.479.414.512.512 0 0 0 .479.475zm1.723 0a.51.51 0 0 0 .475-.475.457.457 0 0 0-.475-.414.408.408 0 0 0-.417.414.46.46 0 0 0 .417.475zm1.727-.064a.417.417 0 1 0 0-.83.42.42 0 0 0 0 .83zm1.784-.054a.334.334 0 0 0 .307-.357.281.281 0 0 0-.307-.306.334.334 0 0 0-.356.306.384.384 0 0 0 .356.356zm1.726-.06a.282.282 0 0 0 .307-.306.272.272 0 0 0-.2-.23.27.27 0 0 0-.107-.006.255.255 0 0 0-.239.236.273.273 0 0 0 .24.307zm1.724-.119a.16.16 0 0 0 .18-.178.193.193 0 0 0-.18-.178c-.059 0-.117.12-.117.178 0 .12.058.178.117.178zm-1.724-1.84c.059 0 .059 0 .059-.058s0-.058-.059-.058a.058.058 0 0 0-.058.058.058.058 0 0 0 .058.058zM9.818.24a.061.061 0 0 0 .06-.06c0-.062 0-.12-.06-.12a.205.205 0 0 0-.059.12l.059.06zm-5.296 0a.061.061 0 0 0 .061-.06c0-.062 0-.12-.061-.12-.062 0-.058.058-.058.12a.058.058 0 0 0 .058.06zM1.063 5.583a.187.187 0 0 0 .178-.178c0-.117-.059-.236-.178-.236-.12 0-.178.12-.178.236a.187.187 0 0 0 .178.178zm1.736.177a.383.383 0 0 0 .355-.355.359.359 0 0 0-.714 0 .386.386 0 0 0 .359.355zm1.723.182a.549.549 0 0 0 .595-.537.558.558 0 0 0-.595-.592.546.546 0 0 0-.534.592.534.534 0 0 0 .534.537zm1.788.116a.66.66 0 0 0 .653-.653.656.656 0 1 0-1.31 0 .66.66 0 0 0 .657.653zm1.723 0a.66.66 0 0 0 .656-.653.656.656 0 1 0-1.31 0 .656.656 0 0 0 .654.653zM9.76 6a.65.65 0 0 0 .653-.595.66.66 0 0 0-.654-.653.65.65 0 0 0-.594.653.641.641 0 0 0 .594.595zm1.784-.058a.537.537 0 0 0 .537-.537.55.55 0 0 0-.537-.592.595.595 0 0 0-.595.592.59.59 0 0 0 .595.537zm1.726-.068a.466.466 0 0 0 .476-.475.437.437 0 0 0-.476-.475.466.466 0 0 0-.475.475.509.509 0 0 0 .476.475zm1.724-.114a.399.399 0 0 0 .417-.355.403.403 0 0 0-.417-.414.396.396 0 0 0-.356.414.383.383 0 0 0 .356.355zm1.788-.058a.307.307 0 0 0 .306-.306.306.306 0 1 0-.595 0 .307.307 0 0 0 .307.306m1.705-.119a.187.187 0 0 0 .178-.178c0-.117-.058-.236-.178-.236s-.178.12-.178.236a.19.19 0 0 0 .178.178z"/>
    <path fill="#55C1E9" d="M20.231 5.466a.214.214 0 0 0 .12-.061.129.129 0 0 0-.12-.117.202.202 0 0 0-.058.117l.058.061zM1.063 7.364a.236.236 0 1 0-.24-.236.255.255 0 0 0 .24.236zm1.735.181a.417.417 0 1 0-.387-.256.41.41 0 0 0 .387.256zm1.724.237a.675.675 0 0 0 .714-.654.724.724 0 0 0-.714-.711.711.711 0 0 0-.653.711.66.66 0 0 0 .653.654zm1.788.178a.81.81 0 0 0 .83-.832.865.865 0 0 0-.83-.892.92.92 0 0 0-.893.892.862.862 0 0 0 .893.831zm1.723 0a.865.865 0 0 0 .892-.832.92.92 0 0 0-.892-.892.865.865 0 0 0-.837.892.812.812 0 0 0 .834.831"/>
    <path fill="#55C1E9" d="M9.76 7.96a.83.83 0 1 0 0-1.663.83.83 0 0 0 0 1.662zm1.784-.059a.773.773 0 1 0-.773-.773.788.788 0 0 0 .773.773zm1.726-.119a.711.711 0 0 0 .712-.654.763.763 0 0 0-.712-.711.714.714 0 0 0-.656.711.66.66 0 0 0 .656.654zm1.724-.068a.595.595 0 0 0 .595-.595.563.563 0 0 0-.595-.595.595.595 0 0 0-.592.595.638.638 0 0 0 .592.595zm1.788-.111a.47.47 0 0 0 .475-.475.524.524 0 0 0-.475-.534.534.534 0 0 0-.537.534.486.486 0 0 0 .537.475zm1.723-.058a.417.417 0 1 0-.414-.417.407.407 0 0 0 .414.417zm1.726-.119a.307.307 0 1 0 .15-.595.307.307 0 0 0-.15.595zm1.785-.12a.178.178 0 1 0 0-.356.178.178 0 0 0 0 .356zm1.739-.119a.058.058 0 0 0 .061-.059c0-.058 0-.058-.061-.058s-.058 0-.058.058a.058.058 0 0 0 .058.059zM1.063 9.088a.24.24 0 1 0-.24-.236.258.258 0 0 0 .24.236zm1.736.239a.475.475 0 1 0-.476-.475.515.515 0 0 0 .476.475zm1.723.294a.773.773 0 1 0 0-1.533.773.773 0 1 0 0 1.533z"/>
    <path fill="#55C1E9" d="M6.31 9.74a.862.862 0 0 0 .83-.888.81.81 0 0 0-.83-.831.862.862 0 0 0-.893.83.92.92 0 0 0 .893.89zm1.723.001a.92.92 0 0 0 .892-.89.865.865 0 0 0-.892-.83.813.813 0 0 0-.837.83.865.865 0 0 0 .834.89"/>
    <path fill="#55C1E9" d="M9.76 9.741a.92.92 0 0 0 .892-.89.864.864 0 0 0-.893-.83.813.813 0 0 0-.834.83.862.862 0 0 0 .834.89zm1.784 0a.865.865 0 0 0 .834-.89.814.814 0 0 0-.834-.83.865.865 0 0 0-.892.83.92.92 0 0 0 .892.89zm1.726-.058a.831.831 0 1 0-.834-.831.81.81 0 0 0 .834.83z"/>
    <path fill="#55C1E9" d="M14.994 9.621a.772.772 0 1 0 0-1.533.773.773 0 1 0 0 1.533zm1.788-.067a.675.675 0 0 0 .653-.711.715.715 0 0 0-.653-.715.724.724 0 0 0-.718.715.687.687 0 0 0 .718.711zm1.723-.111a.558.558 0 0 0 .595-.591.595.595 0 0 0-.595-.595.64.64 0 0 0-.595.595.595.595 0 0 0 .595.591zm1.726-.116a.488.488 0 0 0 .537-.475.524.524 0 0 0-.537-.476.512.512 0 0 0-.463.476.468.468 0 0 0 .479.475m1.769-.061a.396.396 0 0 0 .356-.414.387.387 0 0 0-.356-.36.402.402 0 0 0-.408.36.409.409 0 0 0 .417.414m1.73-.117a.307.307 0 1 0-.307-.307.283.283 0 0 0 .307.307zm1.714-.119a.16.16 0 0 0 .178-.178c0-.062-.062-.12-.178-.12a.129.129 0 0 0-.123.12c0 .116.061.178.123.178zM1.063 10.87a.274.274 0 0 0 .239-.307.257.257 0 0 0-.334-.225.218.218 0 0 0-.144.225c0 .178.06.306.239.306zm1.735.177a.435.435 0 0 0 .476-.475.424.424 0 0 0-.476-.405.457.457 0 0 0-.475.414.466.466 0 0 0 .475.475m1.724.338a.816.816 0 0 0 .834-.822.8.8 0 0 0-.834-.77.788.788 0 0 0-.773.77.803.803 0 0 0 .773.822zm1.788.07a.827.827 0 0 0 .83-.892.81.81 0 0 0-.83-.831.862.862 0 0 0-.893.83.874.874 0 0 0 .893.893zm1.723 0a.877.877 0 0 0 .892-.892.865.865 0 0 0-.892-.831.813.813 0 0 0-.837.831.831.831 0 0 0 .834.892"/>
    <path fill="#55C1E9" d="M9.76 11.464a.877.877 0 0 0 .892-.892.865.865 0 0 0-.893-.831.813.813 0 0 0-.834.831.828.828 0 0 0 .834.892z"/>
    <path fill="#55C1E9" d="M11.544 11.464a.831.831 0 0 0 .834-.892.812.812 0 0 0-.834-.831.865.865 0 0 0-.892.831.877.877 0 0 0 .892.892zm1.726 0a.877.877 0 0 0 .893-.892.865.865 0 0 0-.892-.831.813.813 0 0 0-.835.831.833.833 0 0 0 .835.892z"/>
    <path fill="#55C1E9" d="M14.994 11.464a.875.875 0 0 0 .892-.892.86.86 0 0 0-.892-.831.81.81 0 0 0-.831.83.828.828 0 0 0 .83.893z"/>
    <path fill="#55C1E9" d="M16.782 11.464a.865.865 0 0 0 .591-1.475.85.85 0 0 0-.582-.248.862.862 0 1 0 0 1.723m1.714-.119a.736.736 0 0 0 .773-.712.773.773 0 0 0-1.533 0 .739.739 0 0 0 .772.712m1.714-.059a.687.687 0 0 0 .266-1.33.674.674 0 0 0-.266-.037.662.662 0 0 0-.656.653.68.68 0 0 0 .656.714zm1.785-.119a.549.549 0 0 0 .537-.595.534.534 0 0 0-.537-.534.55.55 0 0 0-.595.534.56.56 0 0 0 .595.595zm1.739-.12a.47.47 0 0 0 .478-.475.482.482 0 0 0-.954 0 .472.472 0 0 0 .476.475zm1.715-.117a.308.308 0 0 0 .355-.358c0-.178-.12-.307-.356-.307a.33.33 0 0 0-.359.307.345.345 0 0 0 .36.359zm1.784-.119c.116 0 .177-.061.177-.24a.159.159 0 0 0-.106-.17.16.16 0 0 0-.071-.007c-.123 0-.24.061-.24.178a.218.218 0 0 0 .24.24zm1.714-.12c.061 0 .061-.058.061-.12a.058.058 0 0 0-.061-.057.058.058 0 0 0-.058.058c0 .061 0 .12.058.12zM1.063 12.593a.258.258 0 0 0 .239-.24.27.27 0 0 0-.362-.292.28.28 0 0 0-.184.293.273.273 0 0 0 .307.239zm1.736.236a.466.466 0 0 0 .475-.476.435.435 0 0 0-.475-.472.466.466 0 0 0-.476.473.509.509 0 0 0 .476.475zm1.723.297a.8.8 0 0 0 .322-1.546.813.813 0 0 0-.322-.057.803.803 0 0 0-.773.83.788.788 0 0 0 .773.773zm1.788.062a.812.812 0 0 0 .83-.835.862.862 0 0 0-.83-.889.92.92 0 0 0-.893.89.865.865 0 0 0 .893.834zm1.723 0a.865.865 0 0 0 .892-.835.92.92 0 0 0-.892-.889.865.865 0 0 0-.837.89.816.816 0 0 0 .834.834"/>
    <path fill="#55C1E9" d="M9.76 13.188a.865.865 0 0 0 .892-.835.92.92 0 0 0-.893-.889.865.865 0 0 0-.834.89.816.816 0 0 0 .834.834zm1.784 0a.814.814 0 0 0 .834-.835.865.865 0 0 0-.834-.889.92.92 0 0 0-.892.89.865.865 0 0 0 .892.834zm1.726 0a.865.865 0 0 0 .893-.835.92.92 0 0 0-.893-.889.865.865 0 0 0-.834.89.817.817 0 0 0 .835.834z"/>
    <path fill="#55C1E9" d="M14.994 13.188a.865.865 0 0 0 .892-.835.92.92 0 0 0-.892-.889.862.862 0 0 0-.831.89.813.813 0 0 0 .83.834zm1.788 0a.812.812 0 0 0 .84-.835.862.862 0 0 0-.831-.889.92.92 0 0 0-.896.89.868.868 0 0 0 .896.834m1.714 0a.868.868 0 0 0 .895-.835.92.92 0 0 0-.895-.889.865.865 0 0 0-.834.89.817.817 0 0 0 .834.834zm1.727 0a.834.834 0 0 0 0-1.665.834.834 0 0 0 0 1.665zm1.784-.12a.714.714 0 1 0 0-1.426.713.713 0 0 0-.535 1.235.715.715 0 0 0 .535.191zm1.739-.12a.613.613 0 0 0 .656-.594.653.653 0 0 0-1.306 0 .612.612 0 0 0 .65.595zm1.714-.119a.484.484 0 0 0 .534-.476.534.534 0 0 0-.534-.533.524.524 0 0 0-.453.717.469.469 0 0 0 .444.292m1.794-.117a.383.383 0 0 0 .26-.637.395.395 0 0 0-.26-.135.407.407 0 0 0-.433.414.402.402 0 0 0 .42.358m1.727-.119a.257.257 0 0 0 .24-.24.24.24 0 1 0-.48 0 .26.26 0 0 0 .24.24zm1.735-.12a.12.12 0 1 0-.038-.236.12.12 0 0 0 .038.236zm-29.64 1.901a.272.272 0 0 0 .239-.306.255.255 0 0 0-.24-.221.27.27 0 0 0-.306.236.282.282 0 0 0 .307.306m1.735.163a.435.435 0 0 0 .476-.475.469.469 0 0 0-.476-.475.512.512 0 0 0-.475.475.466.466 0 0 0 .475.475zm1.724.298a.776.776 0 1 0 0-1.534.773.773 0 0 0 0 1.534z"/>
    <path fill="#55C1E9" d="M6.31 14.97a.865.865 0 0 0 .83-.893.81.81 0 0 0-.83-.843.863.863 0 0 0-.893.83.92.92 0 0 0 .893.893m1.723.013a.92.92 0 0 0 .892-.893.865.865 0 0 0-.892-.843.814.814 0 0 0-.837.843.865.865 0 0 0 .834.892"/>
    <path fill="#55C1E9" d="M9.76 14.97a.92.92 0 0 0 .892-.893.864.864 0 0 0-.893-.843.813.813 0 0 0-.834.83.865.865 0 0 0 .834.893m1.785.013a.865.865 0 0 0 .834-.893.813.813 0 0 0-.834-.843.865.865 0 0 0-.892.83.92.92 0 0 0 .892.893m1.726.013a.92.92 0 0 0 .893-.893.866.866 0 0 0-.892-.843.814.814 0 0 0-.835.83.865.865 0 0 0 .835.893"/>
    <path fill="#55C1E9" d="M14.994 14.97a.92.92 0 0 0 .892-.893.862.862 0 0 0-.892-.843.81.81 0 0 0-.831.83.865.865 0 0 0 .83.893m1.789.013a.865.865 0 0 0 .84-.893.81.81 0 0 0-.84-.843.865.865 0 0 0-.896.83.92.92 0 0 0 .896.893m1.723.013a.92.92 0 0 0 .895-.893.868.868 0 0 0-.895-.843.813.813 0 0 0-.834.83.865.865 0 0 0 .834.893"/>
    <path fill="#55C1E9" d="M20.231 14.97a.92.92 0 0 0 .893-.893.864.864 0 0 0-.893-.843.81.81 0 0 0-.83.83.863.863 0 0 0 .83.893m1.785.013a.865.865 0 0 0 .834-.893.813.813 0 0 0-.834-.843.865.865 0 0 0-.892.83.92.92 0 0 0 .892.893m1.739-.107a.773.773 0 1 0-.773-.773.785.785 0 0 0 .773.773zm1.714-.12a.653.653 0 1 0 0-1.306.653.653 0 0 0 0 1.306zm1.784-.12a.533.533 0 1 0-.005-1.066.533.533 0 0 0 .005 1.066zm1.715-.116a.417.417 0 1 0-.417-.417.405.405 0 0 0 .417.417zm1.735-.12a.283.283 0 0 0 .307-.306.27.27 0 0 0-.307-.236.255.255 0 0 0-.239.236.273.273 0 0 0 .24.306zm1.785-.177a.126.126 0 0 0 .12-.12.12.12 0 0 0-.204-.085.12.12 0 0 0-.035.085.126.126 0 0 0 .12.12zM1.063 16.098a.281.281 0 0 0 .306-.307.306.306 0 0 0-.594 0 .282.282 0 0 0 .306.307m1.717.236a.485.485 0 0 0 .476-.537.466.466 0 0 0-.476-.472.508.508 0 0 0-.475.472.521.521 0 0 0 .475.537zm1.724.239a.72.72 0 0 0 .776-.776.705.705 0 0 0-.776-.724.688.688 0 0 0-.7.724.705.705 0 0 0 .712.776m1.776.117a.829.829 0 0 0 .83-.893.81.81 0 0 0-.83-.828.862.862 0 0 0-.893.828.874.874 0 0 0 .893.893zm1.723 0a.879.879 0 0 0 .892-.893.862.862 0 0 0-.892-.828.812.812 0 0 0-.837.828.831.831 0 0 0 .834.893"/>
    <path fill="#55C1E9" d="M9.76 16.69a.879.879 0 0 0 .892-.893.862.862 0 0 0-.893-.828.81.81 0 0 0-.834.828.828.828 0 0 0 .834.893z"/>
    <path fill="#55C1E9" d="M11.544 16.69a.831.831 0 0 0 .834-.893.813.813 0 0 0-.834-.828.862.862 0 0 0-.892.828.876.876 0 0 0 .892.893zm1.726 0a.879.879 0 0 0 .893-.893.862.862 0 0 0-.892-.828.811.811 0 0 0-.835.828.833.833 0 0 0 .835.893z"/>
    <path fill="#55C1E9" d="M14.994 16.69a.873.873 0 0 0 .892-.893.861.861 0 0 0-.892-.828.808.808 0 0 0-.831.828.828.828 0 0 0 .83.893z"/>
    <path fill="#55C1E9" d="M16.782 16.69a.83.83 0 0 0 .84-.893.808.808 0 0 0-.831-.828.865.865 0 0 0-.896.828.877.877 0 0 0 .896.893m1.714 0a.878.878 0 0 0 .895-.893.865.865 0 0 0-.895-.828.811.811 0 0 0-.834.828.83.83 0 0 0 .834.893z"/>
    <path fill="#55C1E9" d="M20.231 16.69a.88.88 0 0 0 .893-.893.862.862 0 0 0-.893-.828.809.809 0 0 0-.83.828.825.825 0 0 0 .83.893z"/>
    <path fill="#55C1E9" d="M22.016 16.69a.83.83 0 0 0 .834-.893.813.813 0 0 0-.834-.828.862.862 0 0 0-.892.828.875.875 0 0 0 .892.893z"/>
    <path fill="#55C1E9" d="M23.755 16.69a.878.878 0 0 0 .895-.893.896.896 0 0 0-1.784 0 .875.875 0 0 0 .889.893zm1.714-.059a.815.815 0 0 0 .831-.834.802.802 0 0 0-.831-.77.785.785 0 0 0-.776.77.802.802 0 0 0 .776.834zm1.785-.119a.653.653 0 1 0 0-1.307.655.655 0 1 0 0 1.307zm1.714-.178a.457.457 0 0 0 .417-.476.417.417 0 1 0-.834 0 .457.457 0 0 0 .417.476zm1.735-.12a.406.406 0 0 0 .411-.417.396.396 0 0 0-.417-.352.383.383 0 0 0-.358.352.4.4 0 0 0 .358.417m1.791-.178a.218.218 0 0 0 .24-.239.258.258 0 0 0-.24-.236.218.218 0 0 0-.236.236c0 .181.058.24.236.24zm1.724-.116c.061 0 .061-.062.061-.123a.059.059 0 0 0-.038-.055.057.057 0 0 0-.023-.003.058.058 0 0 0-.059.058c0 .061 0 .123.059.123zM1.063 17.88a.307.307 0 0 0 .306-.307.307.307 0 0 0-.595 0 .307.307 0 0 0 .307.306m1.717.175a.466.466 0 0 0 .476-.472.436.436 0 0 0-.476-.475.464.464 0 0 0-.475.475.509.509 0 0 0 .475.472zm1.724.239a.714.714 0 1 0 0-1.422.712.712 0 0 0 0 1.422zm1.788.12a.814.814 0 0 0 .83-.83.865.865 0 0 0-.83-.893.92.92 0 0 0-.893.892.865.865 0 0 0 .893.831zm1.723 0a.865.865 0 0 0 .892-.83.92.92 0 0 0-.892-.893.865.865 0 0 0-.837.892.816.816 0 0 0 .834.831"/>
    <path fill="#55C1E9" d="M9.76 18.413a.865.865 0 0 0 .892-.83.92.92 0 0 0-.893-.893.865.865 0 0 0-.834.892.813.813 0 0 0 .834.831zm1.784 0a.816.816 0 0 0 .834-.83.865.865 0 0 0-.834-.893.92.92 0 0 0-.892.892.865.865 0 0 0 .892.831zm1.726 0a.865.865 0 0 0 .893-.83.92.92 0 0 0-.892-.893.865.865 0 0 0-.835.892.814.814 0 0 0 .835.831z"/>
    <path fill="#55C1E9" d="M14.994 18.413a.865.865 0 0 0 .892-.83.92.92 0 0 0-.892-.893.865.865 0 0 0-.831.892.814.814 0 0 0 .83.831zm1.788 0a.812.812 0 0 0 .84-.83.865.865 0 0 0-.831-.893.92.92 0 0 0-.896.892.867.867 0 0 0 .896.831m1.714 0a.868.868 0 0 0 .895-.83.92.92 0 0 0-.895-.893.865.865 0 0 0-.834.892.816.816 0 0 0 .834.831z"/>
    <path fill="#55C1E9" d="M20.231 18.413a.865.865 0 0 0 .893-.83.92.92 0 0 0-.893-.893.863.863 0 0 0-.83.892.809.809 0 0 0 .83.831zm1.785 0a.816.816 0 0 0 .834-.83.865.865 0 0 0-.834-.893.92.92 0 0 0-.892.892.865.865 0 0 0 .892.831zm1.739 0a.868.868 0 0 0 .895-.83.892.892 0 1 0-1.784 0 .862.862 0 0 0 .889.83z"/>
    <path fill="#55C1E9" d="M25.469 18.413a.862.862 0 0 0 .89-.83.92.92 0 0 0-.89-.893.865.865 0 0 0-.834.892.813.813 0 0 0 .834.831z"/>
    <path fill="#55C1E9" d="M27.254 18.355a.776.776 0 0 0 0-1.534.773.773 0 1 0 0 1.534zm1.714-.178a.596.596 0 1 0-.577-.595.613.613 0 0 0 .595.595m1.717-.178a.46.46 0 0 0 .476-.417.51.51 0 0 0-.476-.476.457.457 0 0 0-.417.476.409.409 0 0 0 .417.417zm1.785-.119a.281.281 0 0 0 .307-.307.332.332 0 0 0-.307-.356.383.383 0 0 0-.359.356.334.334 0 0 0 .36.306zm1.724-.179c.061 0 .18-.06.18-.12a.18.18 0 0 0-.104-.187.181.181 0 0 0-.254.188c0 .058.12.12.178.12zM1.063 19.6a.278.278 0 0 0 .306-.307.307.307 0 1 0-.594 0 .28.28 0 0 0 .306.307m1.718.18a.439.439 0 0 0 .475-.475.466.466 0 0 0-.475-.475.51.51 0 0 0-.476.475.469.469 0 0 0 .476.476zm1.723.237a.689.689 0 0 0 .714-.712.724.724 0 0 0-.714-.714.715.715 0 0 0-.653.714.675.675 0 0 0 .653.712zm1.788.178a.861.861 0 0 0 .83-.89.812.812 0 0 0-.83-.834.865.865 0 0 0-.893.834.92.92 0 0 0 .893.89zm1.723 0a.92.92 0 0 0 .892-.89.865.865 0 0 0-.892-.834.817.817 0 0 0-.837.834.865.865 0 0 0 .834.89"/>
    <path fill="#55C1E9" d="M9.76 20.195a.92.92 0 0 0 .892-.89.865.865 0 0 0-.893-.834.815.815 0 0 0-.834.834.862.862 0 0 0 .834.89zm1.784 0a.864.864 0 0 0 .834-.89.817.817 0 0 0-.834-.834.865.865 0 0 0-.892.834.92.92 0 0 0 .892.89zm1.726 0a.92.92 0 0 0 .893-.89.865.865 0 0 0-.893-.834.815.815 0 0 0-.834.834.865.865 0 0 0 .835.89z"/>
    <path fill="#55C1E9" d="M14.994 20.195a.92.92 0 0 0 .892-.89.865.865 0 0 0-.892-.834.813.813 0 0 0-.831.834.862.862 0 0 0 .83.89zm1.788 0a.861.861 0 0 0 .83-.89.815.815 0 0 0-.83-.834.868.868 0 0 0-.896.834.92.92 0 0 0 .896.89zm1.723 0a.92.92 0 0 0 .895-.89.868.868 0 0 0-.895-.834.814.814 0 0 0-.834.834.865.865 0 0 0 .834.89z"/>
    <path fill="#55C1E9" d="M20.231 20.195a.92.92 0 0 0 .893-.89.865.865 0 0 0-.893-.834.813.813 0 0 0-.83.834.859.859 0 0 0 .83.89z"/>
    <path fill="#55C1E9" d="M22.016 20.195a.864.864 0 0 0 .834-.89.815.815 0 0 0-.834-.834.865.865 0 0 0-.892.834.92.92 0 0 0 .892.89zm1.739 0a.92.92 0 0 0 .895-.89.896.896 0 0 0-1.784 0 .92.92 0 0 0 .889.89z"/>
    <path fill="#55C1E9" d="M25.469 20.195a.92.92 0 0 0 .89-.89.865.865 0 0 0-.89-.834.815.815 0 0 0-.834.834.862.862 0 0 0 .834.89zm1.785-.062a.798.798 0 0 0 .772-.828.844.844 0 0 0-.772-.834.852.852 0 0 0-.834.834.808.808 0 0 0 .834.828zm1.714-.116a.724.724 0 0 0 .715-.712.714.714 0 0 0-1.43 0 .724.724 0 0 0 .715.712zm1.736-.178a.534.534 0 0 0 .536-.534.483.483 0 0 0-.536-.475.466.466 0 0 0-.476.475.524.524 0 0 0 .476.534zm1.784-.165a.332.332 0 0 0 .307-.353.334.334 0 0 0-.307-.359.347.347 0 0 0-.358.359.342.342 0 0 0 .358.352zm1.724-.191a.177.177 0 0 0 .174-.212.177.177 0 0 0-.352.034.16.16 0 0 0 .178.178zm-33.149 1.84a.283.283 0 0 0 .306-.307.306.306 0 0 0-.594 0 .282.282 0 0 0 .306.307m1.717.19a.47.47 0 0 0 .476-.475.478.478 0 0 0-.951 0 .466.466 0 0 0 .475.475zm1.724.224a.682.682 0 0 0 .714-.711.674.674 0 0 0-.714-.653.66.66 0 0 0-.653.653.672.672 0 0 0 .653.711zm1.788.178a.862.862 0 0 0 .83-.89.81.81 0 0 0-.83-.83.86.86 0 0 0-.893.83.92.92 0 0 0 .893.89zm1.723 0a.92.92 0 0 0 .892-.89.865.865 0 0 0-.892-.83.812.812 0 0 0-.837.83.865.865 0 0 0 .834.89"/>
    <path fill="#55C1E9" d="M9.76 21.915a.92.92 0 0 0 .892-.89.864.864 0 0 0-.893-.83.811.811 0 0 0-.834.83.862.862 0 0 0 .834.89zm1.784 0a.865.865 0 0 0 .834-.89.814.814 0 0 0-.834-.83.865.865 0 0 0-.892.83.92.92 0 0 0 .892.89zm1.726 0a.92.92 0 0 0 .893-.89.865.865 0 0 0-.893-.83.811.811 0 0 0-.834.83.865.865 0 0 0 .835.89z"/>
    <path fill="#55C1E9" d="M14.994 21.915a.92.92 0 0 0 .892-.89.862.862 0 0 0-.892-.83.81.81 0 0 0-.831.83.862.862 0 0 0 .83.89zm1.788 0a.862.862 0 0 0 .83-.89.81.81 0 0 0-.83-.83.865.865 0 0 0-.896.83.92.92 0 0 0 .896.89zm1.723 0a.92.92 0 0 0 .895-.89.868.868 0 0 0-.895-.83.811.811 0 0 0-.834.83.865.865 0 0 0 .834.89z"/>
    <path fill="#55C1E9" d="M20.231 21.915a.92.92 0 0 0 .893-.89.865.865 0 0 0-.893-.83.81.81 0 0 0-.83.83.859.859 0 0 0 .83.89z"/>
    <path fill="#55C1E9" d="M22.016 21.915a.865.865 0 0 0 .834-.89.812.812 0 0 0-.834-.83.865.865 0 0 0-.892.83.92.92 0 0 0 .892.89zm1.739 0a.92.92 0 0 0 .895-.89.896.896 0 0 0-1.784 0 .92.92 0 0 0 .889.89z"/>
    <path fill="#55C1E9" d="M25.469 21.915a.92.92 0 0 0 .89-.89.862.862 0 0 0-.89-.83.812.812 0 0 0-.834.83.862.862 0 0 0 .834.89z"/>
    <path fill="#55C1E9" d="M27.254 21.915a.862.862 0 0 0 .83-.89.809.809 0 0 0-.83-.83.868.868 0 0 0-.896.83.92.92 0 0 0 .896.89z"/>
    <path fill="#55C1E9" d="M28.968 21.915a.92.92 0 0 0 .892-.89.896.896 0 0 0-1.785 0 .92.92 0 0 0 .893.89zm1.735-.295a.56.56 0 0 0 .595-.595.547.547 0 0 0-.595-.533.534.534 0 0 0-.536.534.55.55 0 0 0 .536.594zm1.785-.236a.345.345 0 0 0 .356-.358.384.384 0 0 0-.356-.356.345.345 0 0 0-.335.217.342.342 0 0 0-.023.139.307.307 0 0 0 .358.358zm1.724-.122c.122 0 .18-.117.18-.236a.19.19 0 0 0-.18-.178.193.193 0 0 0-.178.178c0 .12.061.236.178.236zM1.063 23.047a.254.254 0 0 0 .239-.236.27.27 0 0 0-.362-.293.278.278 0 0 0-.15.394.27.27 0 0 0 .273.135zm1.735.177a.463.463 0 0 0 .476-.417.515.515 0 0 0-.476-.475.46.46 0 0 0-.417.475.407.407 0 0 0 .417.417zm1.724.236a.653.653 0 1 0 0-1.306.656.656 0 0 0 0 1.306zm1.788.181a.81.81 0 0 0 .83-.834.834.834 0 1 0-1.664 0 .815.815 0 0 0 .834.834zm1.723 0a.865.865 0 0 0 .892-.834.92.92 0 0 0-.892-.892.865.865 0 0 0-.837.892.815.815 0 0 0 .834.834"/>
    <path fill="#55C1E9" d="M9.76 23.641a.865.865 0 0 0 .892-.834.92.92 0 0 0-.893-.892.865.865 0 0 0-.834.892.815.815 0 0 0 .834.834zm1.784 0a.816.816 0 0 0 .834-.834.865.865 0 0 0-.834-.892.92.92 0 0 0-.892.892.865.865 0 0 0 .892.834zm1.726 0a.865.865 0 0 0 .893-.834.92.92 0 0 0-.892-.892.865.865 0 0 0-.835.892.816.816 0 0 0 .835.834z"/>
    <path fill="#55C1E9" d="M14.994 23.641a.865.865 0 0 0 .892-.834.92.92 0 0 0-.892-.892.865.865 0 0 0-.831.892.813.813 0 0 0 .83.834zm1.788 0a.815.815 0 0 0 .83-.834.865.865 0 0 0-.83-.892.92.92 0 0 0-.896.892.868.868 0 0 0 .896.834zm1.723 0a.868.868 0 0 0 .895-.834.92.92 0 0 0-.895-.892.865.865 0 0 0-.834.892.816.816 0 0 0 .834.834z"/>
    <path fill="#55C1E9" d="M20.231 23.641a.865.865 0 0 0 .893-.834.92.92 0 0 0-.893-.892.863.863 0 0 0-.83.892.813.813 0 0 0 .83.834z"/>
    <path fill="#55C1E9" d="M22.016 23.641a.817.817 0 0 0 .834-.834.865.865 0 0 0-.834-.892.92.92 0 0 0-.892.892.865.865 0 0 0 .892.834zm1.739 0a.868.868 0 0 0 .895-.834.892.892 0 1 0-1.784 0 .865.865 0 0 0 .889.834z"/>
    <path fill="#55C1E9" d="M25.469 23.641a.865.865 0 0 0 .89-.834.92.92 0 0 0-.89-.892.865.865 0 0 0-.834.892.816.816 0 0 0 .834.834z"/>
    <path fill="#55C1E9" d="M27.254 23.641a.814.814 0 0 0 .83-.834.865.865 0 0 0-.83-.892.92.92 0 0 0-.896.892.868.868 0 0 0 .896.834z"/>
    <path fill="#55C1E9" d="M28.968 23.641a.865.865 0 0 0 .892-.834.892.892 0 1 0-1.785 0 .865.865 0 0 0 .893.834zm1.736-.288a.534.534 0 1 0-.007-1.067.534.534 0 0 0 .007 1.067zm1.784-.187a.383.383 0 0 0 .356-.359.344.344 0 0 0-.356-.355.307.307 0 0 0-.359.355.347.347 0 0 0 .36.36zm1.724-.239c.06 0 .18-.061.18-.12a.181.181 0 0 0-.358 0c0 .059.12.12.178.12zM1.063 24.77a.26.26 0 0 0 .239-.24.254.254 0 0 0-.24-.236.217.217 0 0 0-.238.237.221.221 0 0 0 .239.239zm1.735.175a.414.414 0 1 0-.417-.414.404.404 0 0 0 .417.414zm1.724.177a.558.558 0 0 0 .595-.591.595.595 0 0 0-.595-.595.585.585 0 0 0-.534.595.546.546 0 0 0 .534.591zm1.788.181a.772.772 0 1 0-.776-.772.791.791 0 0 0 .776.772zm1.723.117a.92.92 0 0 0 .892-.89.865.865 0 0 0-.892-.83.814.814 0 0 0-.837.83.865.865 0 0 0 .834.89"/>
    <path fill="#55C1E9" d="M9.76 25.42a.92.92 0 0 0 .892-.89.864.864 0 0 0-.893-.83.811.811 0 0 0-.834.83.862.862 0 0 0 .834.89zm1.784 0a.865.865 0 0 0 .834-.89.814.814 0 0 0-.834-.83.865.865 0 0 0-.892.83.92.92 0 0 0 .892.89zm1.726 0a.92.92 0 0 0 .893-.89.865.865 0 0 0-.893-.83.811.811 0 0 0-.834.83.865.865 0 0 0 .835.89z"/>
    <path fill="#55C1E9" d="M14.994 25.42a.92.92 0 0 0 .892-.89.862.862 0 0 0-.892-.83.81.81 0 0 0-.831.83.862.862 0 0 0 .83.89zm1.788 0a.861.861 0 0 0 .83-.89.81.81 0 0 0-.83-.83.865.865 0 0 0-.896.83.92.92 0 0 0 .896.89zm1.723 0a.92.92 0 0 0 .895-.89.868.868 0 0 0-.895-.83.811.811 0 0 0-.834.83.865.865 0 0 0 .834.89z"/>
    <path fill="#55C1E9" d="M20.231 25.42a.92.92 0 0 0 .893-.89.865.865 0 0 0-.893-.83.81.81 0 0 0-.83.83.859.859 0 0 0 .83.89z"/>
    <path fill="#55C1E9" d="M22.016 25.42a.865.865 0 0 0 .834-.89.812.812 0 0 0-.834-.83.865.865 0 0 0-.892.83.92.92 0 0 0 .892.89zm1.739 0a.92.92 0 0 0 .895-.89.896.896 0 0 0-1.784 0 .92.92 0 0 0 .889.89z"/>
    <path fill="#55C1E9" d="M25.469 25.42a.92.92 0 0 0 .89-.89.862.862 0 0 0-.89-.83.812.812 0 0 0-.834.83.862.862 0 0 0 .834.89z"/>
    <path fill="#55C1E9" d="M27.254 25.42a.861.861 0 0 0 .83-.89.809.809 0 0 0-.83-.83.868.868 0 0 0-.896.83.92.92 0 0 0 .896.89z"/>
    <path fill="#55C1E9" d="M28.968 25.42a.92.92 0 0 0 .892-.89.896.896 0 0 0-1.785 0 .92.92 0 0 0 .893.89zm1.735-.356a.536.536 0 1 0 0-1.07.54.54 0 0 0 0 1.07zm1.785-.236a.307.307 0 0 0 0-.595.307.307 0 0 0 0 .595zm1.724-.181a.118.118 0 0 0 .096-.027.118.118 0 0 0 .042-.09.119.119 0 0 0-.087-.116.118.118 0 0 0-.123.038.12.12 0 0 0 .072.195zM1.063 26.49a.218.218 0 0 0 .239-.24.24.24 0 0 0-.478 0 .218.218 0 0 0 .239.24zm1.736.178a.408.408 0 0 0 .41-.417.396.396 0 0 0-.417-.353.383.383 0 0 0-.358.353.399.399 0 0 0 .358.417m1.73.058A.44.44 0 0 0 5 26.251a.472.472 0 0 0-.478-.475.46.46 0 0 0-.414.475.423.423 0 0 0 .414.475zm1.788.307a.741.741 0 0 0 .714-.773.717.717 0 0 0-1.432 0 .738.738 0 0 0 .718.773zm1.723.11a.92.92 0 0 0 .892-.892.865.865 0 0 0-.892-.831.812.812 0 0 0-.837.83.864.864 0 0 0 .834.893"/>
    <path fill="#55C1E9" d="M9.76 27.143a.92.92 0 0 0 .892-.892.864.864 0 0 0-.893-.831.813.813 0 0 0-.834.83.864.864 0 0 0 .834.893zm1.784 0a.865.865 0 0 0 .834-.892.814.814 0 0 0-.834-.831.865.865 0 0 0-.892.83.92.92 0 0 0 .892.893zm1.726 0a.92.92 0 0 0 .893-.892.865.865 0 0 0-.892-.831.814.814 0 0 0-.835.83.865.865 0 0 0 .835.893z"/>
    <path fill="#55C1E9" d="M14.994 27.143a.92.92 0 0 0 .892-.892.863.863 0 0 0-.892-.831.81.81 0 0 0-.831.83.865.865 0 0 0 .83.893zm1.788 0a.865.865 0 0 0 .83-.892.81.81 0 0 0-.83-.831.865.865 0 0 0-.896.83.92.92 0 0 0 .896.893zm1.723 0a.92.92 0 0 0 .895-.892.867.867 0 0 0-.895-.831.813.813 0 0 0-.834.83.865.865 0 0 0 .834.893z"/>
    <path fill="#55C1E9" d="M20.231 27.143a.92.92 0 0 0 .893-.892.865.865 0 0 0-.893-.831.81.81 0 0 0-.83.83.863.863 0 0 0 .83.893zm1.785 0a.865.865 0 0 0 .834-.892.813.813 0 0 0-.834-.831.865.865 0 0 0-.892.83.92.92 0 0 0 .892.893zm1.739 0a.92.92 0 0 0 .895-.892.896.896 0 0 0-1.784 0 .92.92 0 0 0 .889.892z"/>
    <path fill="#55C1E9" d="M25.469 27.143a.92.92 0 0 0 .89-.892.862.862 0 0 0-.89-.831.813.813 0 0 0-.834.83.865.865 0 0 0 .834.893z"/>
    <path fill="#55C1E9" d="M27.254 27.143a.865.865 0 0 0 .83-.892.81.81 0 0 0-.83-.831.868.868 0 0 0-.896.83.92.92 0 0 0 .896.893zm1.714-.11a.735.735 0 0 0 .714-.773.715.715 0 1 0-1.429 0 .737.737 0 0 0 .715.773zm1.736-.365a.404.404 0 0 0 .417-.417.395.395 0 0 0-.663-.244.38.38 0 0 0-.017.524c.067.078.16.127.263.137zm1.784-.178c.12 0 .178-.116.178-.24a.19.19 0 0 0-.178-.177.264.264 0 0 0-.236.178.251.251 0 0 0 .236.24zM1.063 28.213c.12 0 .24-.061.24-.18a.24.24 0 0 0-.48 0c0 .119.12.18.24.18zm1.736.178a.383.383 0 0 0 .355-.358.359.359 0 0 0-.714 0 .386.386 0 0 0 .359.358zm1.723.117A.47.47 0 0 0 5 28.033a.439.439 0 0 0-.478-.473.42.42 0 0 0-.398.298.423.423 0 0 0-.016.175.457.457 0 0 0 .414.475zm1.788.181a.66.66 0 0 0 .653-.657.674.674 0 0 0-.653-.71.723.723 0 0 0-.718.71.718.718 0 0 0 .718.657zm1.723.184a.816.816 0 0 0 .834-.835.837.837 0 1 0-1.668 0 .816.816 0 0 0 .834.835zm1.727 0a.865.865 0 0 0 .892-.834.92.92 0 0 0-.893-.89.865.865 0 0 0-.834.89.816.816 0 0 0 .834.834zm1.784 0a.814.814 0 0 0 .834-.834.865.865 0 0 0-.834-.89.92.92 0 0 0-.892.89.865.865 0 0 0 .892.834zm1.726 0a.865.865 0 0 0 .893-.834.92.92 0 0 0-.893-.89.865.865 0 0 0-.834.89.817.817 0 0 0 .835.834z"/>
    <path fill="#55C1E9" d="M14.994 28.873a.865.865 0 0 0 .892-.834.92.92 0 0 0-.892-.89.862.862 0 0 0-.831.89.813.813 0 0 0 .83.834zm1.788 0a.813.813 0 0 0 .83-.834.862.862 0 0 0-.83-.89.92.92 0 0 0-.896.89.868.868 0 0 0 .896.834zm1.723 0a.868.868 0 0 0 .895-.834.92.92 0 0 0-.895-.89.865.865 0 0 0-.834.89.817.817 0 0 0 .834.834z"/>
    <path fill="#55C1E9" d="M20.232 28.873a.865.865 0 0 0 .892-.834.92.92 0 0 0-.892-.89.862.862 0 0 0-.831.89.815.815 0 0 0 .83.834zm1.784 0a.815.815 0 0 0 .834-.834.865.865 0 0 0-.834-.89.92.92 0 0 0-.892.89.865.865 0 0 0 .892.834zm1.739 0a.867.867 0 0 0 .895-.834.892.892 0 1 0-1.784 0 .865.865 0 0 0 .889.834z"/>
    <path fill="#55C1E9" d="M25.469 28.873a.865.865 0 0 0 .89-.834.92.92 0 0 0-.89-.89.865.865 0 0 0-.834.89.815.815 0 0 0 .834.834z"/>
    <path fill="#55C1E9" d="M27.254 28.805a.773.773 0 1 0 0-1.533.773.773 0 1 0 0 1.533zm1.714-.239a.533.533 0 1 0-.006-1.066.533.533 0 0 0 .006 1.066zm1.736-.236a.332.332 0 0 0 .355-.307.383.383 0 0 0-.355-.355.33.33 0 0 0-.307.355.278.278 0 0 0 .184.293.28.28 0 0 0 .123.014zm1.784-.236a.061.061 0 0 0 .062-.062.212.212 0 0 0-.062-.116.129.129 0 0 0-.12.116c0 .062.059.062.12.062zm-31.425 1.84a.178.178 0 1 0 0-.356c-.12 0-.24.058-.24.178s.12.178.24.178zm1.736.119a.306.306 0 1 0 .148-.594.306.306 0 0 0-.148.594zm1.723.178a.475.475 0 0 0 0-.95.478.478 0 0 0 0 .95zm1.788.119a.595.595 0 1 0-.086-1.186.595.595 0 0 0 .086 1.187zm1.723.179a.772.772 0 1 0-.773-.773.785.785 0 0 0 .773.773zm1.727.119a.891.891 0 1 0 .104-1.78.891.891 0 0 0-.105 1.78z"/>
    <path fill="#55C1E9" d="M11.544 30.648a.892.892 0 1 0-.104-1.78.892.892 0 0 0 .104 1.78z"/>
    <path fill="#55C1E9" d="M13.27 30.648a.892.892 0 1 0 .106-1.78.892.892 0 0 0-.105 1.78z"/>
    <path fill="#55C1E9" d="M14.994 30.648a.892.892 0 1 0 .105-1.78.892.892 0 0 0-.105 1.78z"/>
    <path fill="#55C1E9" d="M16.782 30.648a.892.892 0 1 0-.105-1.78.892.892 0 0 0 .105 1.78z"/>
    <path fill="#55C1E9" d="M18.505 30.648a.892.892 0 1 0 .105-1.78.892.892 0 0 0-.105 1.78z"/>
    <path fill="#55C1E9" d="M20.231 30.648a.892.892 0 1 0 .106-1.78.892.892 0 0 0-.106 1.78z"/>
    <path fill="#55C1E9" d="M22.016 30.648a.892.892 0 1 0-.104-1.781.892.892 0 0 0 .104 1.781zm1.739-.061a.831.831 0 1 0-.831-.831.812.812 0 0 0 .83.83zm1.715-.058a.788.788 0 0 0 .772-.773.739.739 0 0 0-.773-.712.686.686 0 0 0-.718.712.737.737 0 0 0 .718.773zm1.783-.236a.537.537 0 1 0 0-1.073.537.537 0 0 0 0 1.073zm1.715-.193a.356.356 0 1 0-.356-.356.383.383 0 0 0 .356.355zm1.736-.225a.126.126 0 0 0 .116-.12.129.129 0 0 0-.116-.119.133.133 0 0 0-.12.12.13.13 0 0 0 .12.12zM1.063 31.657a.19.19 0 0 0 .178-.178c0-.058-.12-.12-.178-.12-.12 0-.178.062-.178.12a.157.157 0 0 0 .178.178zm1.735.12a.283.283 0 0 0 .307-.307.306.306 0 0 0-.595 0 .282.282 0 0 0 .307.307m1.705.116a.42.42 0 1 0 0-.83.417.417 0 0 0 0 .83zm1.788.181a.552.552 0 0 0 .533-.595.53.53 0 0 0-.533-.533.585.585 0 0 0-.595.533.613.613 0 0 0 .595.595zm1.723.116a.724.724 0 0 0 .714-.71.715.715 0 0 0-.714-.654.656.656 0 0 0-.653.653.671.671 0 0 0 .653.712zm1.727.12a.81.81 0 0 0 .83-.83.8.8 0 0 0-.83-.767.788.788 0 0 0-.777.772.8.8 0 0 0 .776.831m1.785.053a.865.865 0 0 0 .834-.89.814.814 0 0 0-.834-.83.865.865 0 0 0-.892.83.92.92 0 0 0 .892.89zm1.726 0a.92.92 0 0 0 .893-.89.865.865 0 0 0-.893-.83.813.813 0 0 0-.834.83.865.865 0 0 0 .835.89z"/>
    <path fill="#55C1E9" d="M14.994 32.369a.92.92 0 0 0 .892-.89.863.863 0 0 0-.892-.83.81.81 0 0 0-.831.83.862.862 0 0 0 .83.89zm1.788 0a.862.862 0 0 0 .83-.89.81.81 0 0 0-.83-.83.865.865 0 0 0-.896.83.92.92 0 0 0 .896.89zm1.723 0a.92.92 0 0 0 .895-.89.867.867 0 0 0-.895-.83.813.813 0 0 0-.834.83.865.865 0 0 0 .834.89z"/>
    <path fill="#55C1E9" d="M20.231 32.369a.92.92 0 0 0 .893-.89.865.865 0 0 0-.893-.83.811.811 0 0 0-.83.83.858.858 0 0 0 .83.89zm1.785-.123a.749.749 0 0 0 .773-.773.785.785 0 0 0-.773-.772.749.749 0 0 0-.773.772.718.718 0 0 0 .773.773zm1.739-.113a.659.659 0 0 0 .656-.654.654.654 0 1 0-.656.654zm1.714-.12a.53.53 0 0 0 .534-.533.525.525 0 0 0-.534-.476.512.512 0 0 0-.488.476.524.524 0 0 0 .479.533m1.794-.178c.177 0 .306-.12.306-.356a.281.281 0 0 0-.306-.306.334.334 0 0 0-.36.306.345.345 0 0 0 .36.356zm1.714-.236a.12.12 0 1 0-.117-.12.129.129 0 0 0 .117.12zM1.063 33.38a.132.132 0 0 0 .12-.12c0-.119-.062-.177-.12-.177a.156.156 0 0 0-.178.178c0 .058.058.12.178.12zm1.735.117a.217.217 0 0 0 .175-.062.215.215 0 0 0 .062-.174c0-.178-.059-.307-.237-.307a.272.272 0 0 0-.239.307.255.255 0 0 0 .24.236zm1.724.12a.398.398 0 0 0 .417-.356.405.405 0 0 0-.417-.402.399.399 0 0 0-.356.417.383.383 0 0 0 .356.356m1.788.104a.515.515 0 0 0 .475-.475.524.524 0 0 0-.476-.534.488.488 0 0 0-.478.534.472.472 0 0 0 .478.475zm1.723.12a.613.613 0 0 0 .613-.595.564.564 0 0 0-.613-.595.613.613 0 0 0-.595.595.64.64 0 0 0 .595.595zm1.727.058a.673.673 0 0 0 .714-.653.683.683 0 0 0-.715-.708.67.67 0 0 0-.653.711.66.66 0 0 0 .653.653m1.785.117a.788.788 0 0 0 .776-.773.8.8 0 0 0-1.098-.774.81.81 0 0 0-.51.774.8.8 0 0 0 .832.773zm1.726.052a.81.81 0 0 0 .832-.831.833.833 0 0 0-1.44-.622.835.835 0 0 0-.226.622.813.813 0 0 0 .835.83zm1.724 0a.86.86 0 0 0 .892-.831.92.92 0 0 0-.892-.893.865.865 0 0 0-.831.893.811.811 0 0 0 .83.83zm1.788 0a.809.809 0 0 0 .83-.831.865.865 0 0 0-.83-.893.92.92 0 0 0-.896.893.865.865 0 0 0 .896.83z"/>
    <path fill="#55C1E9" d="M18.505 34.034a.802.802 0 0 0 .776-1.095.812.812 0 0 0-.776-.51.804.804 0 1 0 0 1.605zm1.727-.062a.723.723 0 0 0 .714-.711.683.683 0 0 0-.715-.711.72.72 0 0 0-.714.711.767.767 0 0 0 .715.711zm1.784-.178a.534.534 0 0 0 .537-.533.552.552 0 0 0-.537-.595.613.613 0 0 0-.595.595.586.586 0 0 0 .595.533zm1.739-.116a.45.45 0 0 0 .42-.417.417.417 0 1 0-.834 0 .447.447 0 0 0 .414.417zm1.715-.181a.266.266 0 0 0 .306-.236.28.28 0 0 0-.185-.292.28.28 0 0 0-.225.018.27.27 0 0 0-.136.274.251.251 0 0 0 .24.236zm1.784-.177l.058-.059a.058.058 0 0 0-.058-.058c-.062 0-.062 0-.062.058a.059.059 0 0 0 .039.055.059.059 0 0 0 .023.003zM1.063 35.1a.12.12 0 1 0-.12-.116.129.129 0 0 0 .12.117zm1.736.062c.12 0 .236-.061.236-.178 0-.116-.117-.177-.236-.177a.178.178 0 1 0 0 .355zm1.723.12a.306.306 0 1 0 .149-.595.306.306 0 0 0-.15.595zm1.788.178a.475.475 0 1 0 0-.951.475.475 0 0 0 0 .95zm1.723.058a.536.536 0 1 0 0-1.07.54.54 0 0 0 0 1.07zm1.727.058a.594.594 0 0 0 .24-1.154.594.594 0 0 0-.24-.033.594.594 0 1 0 0 1.187zm1.784.061a.654.654 0 1 0-.668-.653.659.659 0 0 0 .656.653m1.738.059a.715.715 0 1 0-.093-1.426.715.715 0 0 0 .093 1.426zm1.724 0a.715.715 0 1 0 .093-1.428.715.715 0 0 0-.093 1.428zm1.788-.058a.653.653 0 0 0 0-1.307.657.657 0 1 0 0 1.307zm1.723-.062a.594.594 0 0 0 .24-1.154.594.594 0 0 0-.24-.033.594.594 0 1 0 0 1.187zm1.726-.058a.536.536 0 1 0 0-1.07.536.536 0 1 0 0 1.07zm1.785-.178a.362.362 0 0 0 0-.714.358.358 0 1 0 0 .714zm1.739-.178a.178.178 0 1 0 0-.356.178.178 0 0 0 0 .356zM1.063 36.766a.059.059 0 0 0 .055-.038.058.058 0 0 0 .003-.023l-.058-.059a.058.058 0 0 0-.058.059c0 .061 0 .061.058.061zm1.735.116a.157.157 0 0 0 .172-.105.156.156 0 0 0 .006-.072c0-.059-.058-.117-.178-.117a.126.126 0 0 0-.12.117c0 .119.059.177.12.177zm1.724.062c.18 0 .24-.062.24-.24a.218.218 0 0 0-.24-.236.257.257 0 0 0-.225.331.218.218 0 0 0 .225.145zm1.788.178a.417.417 0 1 0-.418-.417.404.404 0 0 0 .417.417zm1.723 0a.404.404 0 0 0 .417-.417.417.417 0 1 0-.834 0 .407.407 0 0 0 .417.417zm1.727.058a.435.435 0 0 0 .475-.475.469.469 0 0 0-.476-.473.515.515 0 0 0-.478.476.47.47 0 0 0 .478.475m1.785.058a.486.486 0 0 0 .475-.536.47.47 0 0 0-.475-.472.524.524 0 0 0-.534.475.534.534 0 0 0 .534.536m1.726-.003a.536.536 0 1 0 0-1.072.536.536 0 0 0 0 1.072zm1.724 0a.537.537 0 1 0 0-1.07.54.54 0 0 0 0 1.07zm1.788-.061a.468.468 0 0 0 .475-.475.515.515 0 0 0-.476-.476.472.472 0 0 0-.478.476.438.438 0 0 0 .479.475zm1.723-.058c.24 0 .359-.178.359-.417a.344.344 0 0 0-.359-.356.384.384 0 0 0-.26.635.394.394 0 0 0 .26.138zm1.727-.178c.177 0 .239-.062.239-.24a.218.218 0 0 0-.24-.236.258.258 0 0 0-.239.236.221.221 0 0 0 .24.24zm1.784-.12c.058 0 .058-.058.058-.12a.058.058 0 0 0-.017-.04.058.058 0 0 0-.04-.018.218.218 0 0 0-.12.059.129.129 0 0 0 .12.12zM2.799 38.548a.215.215 0 0 0 .12-.062.129.129 0 0 0-.12-.116c-.062 0-.062.058-.062.116a.061.061 0 0 0 .062.062zm1.723.119a.193.193 0 0 0 .18-.18.16.16 0 0 0-.18-.179c-.058 0-.117.062-.117.178 0 .062.059.181.117.181zm1.788.058a.258.258 0 0 0 .236-.239.24.24 0 0 0-.476 0 .258.258 0 0 0 .24.24zm1.723.059a.306.306 0 0 0 .307-.307.307.307 0 0 0-.595 0 .307.307 0 0 0 .306.307m1.709 0c.238 0 .355-.117.355-.307a.307.307 0 0 0-.356-.356c-.178 0-.306.12-.306.356a.28.28 0 0 0 .306.307zm1.784.061a.383.383 0 0 0 .26-.637.395.395 0 0 0-.26-.136c-.24 0-.356.178-.356.414a.341.341 0 0 0 .356.359zm1.726 0a.342.342 0 0 0 .366-.359c0-.236-.12-.414-.356-.414a.399.399 0 0 0-.359.414.386.386 0 0 0 .359.359m1.714 0a.343.343 0 0 0 .358-.359.308.308 0 0 0-.358-.356.343.343 0 0 0-.356.356.383.383 0 0 0 .356.359z"/>
    <path fill="#55C1E9" d="M14.994 38.784a.331.331 0 0 0 .359-.307.328.328 0 1 0-.653 0 .307.307 0 0 0 .306.307m1.776-.059a.258.258 0 0 0 .236-.239.27.27 0 0 0-.463-.226.28.28 0 0 0-.047.33.27.27 0 0 0 .274.135zm1.723-.177c.061 0 .12 0 .12-.062a.126.126 0 0 0-.12-.116.123.123 0 0 0-.117.116c0 .062.056.062.117.062zm-13.983 1.72c.061 0 .12 0 .12-.058 0-.059-.059-.059-.12-.059a.058.058 0 0 0-.059.059.058.058 0 0 0 .059.058zm1.788.062a.12.12 0 0 0 .117-.144.12.12 0 0 0-.163-.087.12.12 0 0 0-.074.11.129.129 0 0 0 .12.12zm1.723.057a.178.178 0 1 0 0-.356.178.178 0 0 0 0 .356zm1.727 0c.119 0 .239-.058.239-.178s-.12-.178-.24-.178a.178.178 0 0 0 0 .356zm1.784 0a.178.178 0 0 0 0-.355c-.12 0-.239.058-.239.177 0 .12.12.178.24.178zm1.726 0a.178.178 0 1 0-.178-.178.155.155 0 0 0 .044.134.156.156 0 0 0 .134.044zm1.724-.057a.12.12 0 0 0 0-.24c-.058 0-.058.061-.058.12 0 .058 0 .12.058.12z"/>
</svg>
